<svg xmlns="http://www.w3.org/2000/svg" xmlns:xlink="http://www.w3.org/1999/xlink" width="500" zoomAndPan="magnify" viewBox="0 0 375 374.999991" height="500" preserveAspectRatio="xMidYMid meet" version="1.0"><defs><g/><clipPath id="147e4d00d4"><path d="M 3.472656 7.898438 L 365.722656 7.898438 L 365.722656 367 L 3.472656 367 Z M 3.472656 7.898438 " clip-rule="nonzero"/></clipPath></defs><rect x="-37.5" width="450" fill="#ffffff" y="-37.499999" height="449.999989" fill-opacity="1"/><rect x="-37.5" width="450" fill="#ffffff" y="-37.499999" height="449.999989" fill-opacity="1"/><rect x="-37.5" width="450" fill="#ffffff" y="-37.499999" height="449.999989" fill-opacity="1"/><g clip-path="url(#147e4d00d4)"><path fill="#202020" d="M 133.421875 43.363281 L 134.285156 42.210938 C 135.914062 41.542969 136.394531 41.828125 135.820312 42.210938 Z M 124.511719 45.179688 C 122.785156 46.332031 120.871094 47.765625 122.308594 47.863281 C 123.839844 46.425781 124.414062 46.523438 126.140625 44.894531 C 127.671875 44.222656 129.015625 44.03125 128.824219 44.320312 C 129.300781 43.9375 131.410156 43.457031 132.082031 42.789062 C 129.78125 42.980469 127.097656 44.128906 124.511719 45.660156 C 123.9375 45.753906 124.414062 45.371094 124.511719 45.179688 Z M 9.511719 161.90625 L 9.894531 160.855469 C 9.703125 161.140625 9.605469 161.523438 9.511719 161.90625 Z M 17.945312 265.132812 C 17.65625 264.367188 17.371094 264.078125 17.371094 264.078125 C 17.753906 264.75 18.039062 265.324219 17.945312 265.132812 Z M 25.515625 281.601562 C 25.324219 281.21875 25.226562 280.933594 25.035156 280.644531 C 25.226562 281.027344 25.417969 281.410156 25.515625 281.601562 Z M 9.511719 161.90625 L 8.550781 164.589844 C 8.746094 164.78125 9.128906 163.25 9.511719 161.90625 Z M 104.195312 56.574219 C 104.671875 56.289062 105.058594 56 105.441406 55.714844 C 105.058594 56 104.671875 56.191406 104.195312 56.480469 C 104.289062 56.480469 104.195312 56.574219 104.195312 56.574219 Z M 28.101562 119.390625 L 28.582031 118.625 C 28.675781 118.339844 28.675781 118.148438 28.773438 117.859375 C 28.484375 118.433594 28.292969 118.914062 28.101562 119.390625 Z M 50.625 91.621094 C 50.046875 92.199219 50.238281 92.773438 50.238281 93.25 C 50.335938 92.773438 50.71875 92.292969 51.199219 91.71875 C 51.101562 91.527344 50.910156 91.527344 50.625 91.621094 Z M 96.046875 58.300781 L 96.910156 57.726562 C 96.71875 57.820312 96.335938 58.109375 96.046875 58.300781 Z M 15.738281 141.894531 C 15.644531 141.894531 15.546875 141.992188 15.453125 142.085938 C 15.546875 142.085938 15.644531 141.992188 15.738281 141.894531 Z M 89.148438 43.074219 C 89.148438 42.980469 89.148438 42.980469 89.148438 43.074219 C 88.957031 43.171875 88.957031 43.171875 89.148438 43.074219 Z M 61.546875 72.375 L 61.835938 71.898438 C 61.738281 71.800781 61.644531 71.707031 61.546875 71.609375 Z M 44.683594 308.703125 C 44.683594 308.605469 44.585938 308.605469 44.585938 308.605469 C 43.914062 308.03125 44.296875 308.414062 44.683594 308.703125 Z M 317.328125 306.210938 C 314.546875 308.320312 320.683594 301.617188 316.65625 304.96875 C 317.230469 304.777344 314.164062 309.085938 317.328125 306.210938 Z M 103.425781 56.960938 C 103.042969 57.152344 102.566406 57.4375 102.183594 57.628906 C 102.660156 57.34375 103.042969 57.152344 103.425781 56.960938 Z M 316.65625 304.96875 L 316.273438 305.351562 C 316.464844 305.253906 316.5625 305.160156 316.65625 304.96875 Z M 107.355469 351.886719 C 107.261719 351.695312 106.972656 351.503906 106.78125 351.3125 C 106.78125 351.410156 106.878906 351.503906 107.355469 351.886719 Z M 59.535156 321.4375 L 60.589844 322.394531 C 60.207031 322.011719 59.824219 321.722656 59.535156 321.4375 Z M 135.722656 360.21875 C 136.488281 360.410156 136.683594 360.601562 137.734375 360.792969 C 137.640625 360.695312 137.542969 360.695312 137.449219 360.601562 C 136.96875 360.601562 136.488281 360.503906 135.722656 360.21875 Z M 166.007812 365.007812 C 165.816406 364.910156 165.625 364.910156 165.433594 364.8125 C 165.144531 364.8125 164.761719 364.8125 164.472656 364.71875 Z M 173.097656 12.816406 C 172.425781 12.71875 172.042969 12.527344 171.660156 12.335938 C 172.234375 12.71875 167.828125 13.199219 173.097656 12.816406 Z M 104.003906 56.289062 C 103.90625 56.480469 103.714844 56.671875 103.332031 56.960938 C 103.621094 56.769531 103.90625 56.574219 104.195312 56.480469 C 104.289062 56.382812 104.289062 56.289062 104.003906 56.289062 Z M 138.023438 355.8125 C 138.789062 356.003906 139.558594 356.195312 140.324219 356.386719 L 142.625 356.867188 C 141.378906 356.578125 139.652344 356.292969 138.023438 355.8125 Z M 346.460938 115.179688 L 345.980469 114.222656 C 346.171875 114.507812 346.269531 114.890625 346.460938 115.179688 Z M 156.519531 359.164062 C 157.285156 359.546875 158.246094 359.738281 159.105469 359.929688 C 159.296875 359.929688 159.488281 359.929688 159.683594 359.835938 C 158.628906 359.644531 157.574219 359.453125 156.519531 359.164062 Z M 171.660156 12.335938 C 171.757812 12.335938 171.757812 12.335938 171.660156 12.335938 C 171.757812 12.335938 171.757812 12.335938 171.660156 12.335938 Z M 141.570312 18.371094 C 141.855469 18.273438 142.335938 18.082031 142.625 17.988281 C 143.292969 17.699219 143.675781 17.410156 142.625 17.507812 C 140.515625 18.179688 140.132812 18.273438 139.84375 18.179688 C 139.460938 18.082031 139.171875 17.988281 137.160156 18.273438 C 136.105469 18.945312 135.050781 19.136719 134.191406 19.328125 C 133.328125 19.613281 132.753906 19.804688 132.65625 20.378906 C 131.027344 20.1875 131.507812 20.285156 128.726562 20.667969 C 129.398438 20.761719 128.152344 21.242188 126.90625 21.914062 C 125.566406 22.582031 124.222656 23.347656 124.414062 23.636719 C 123.074219 23.347656 128.535156 21.050781 124.796875 21.53125 C 123.746094 22.199219 122.113281 23.0625 120.773438 23.730469 C 119.433594 24.496094 118.378906 25.265625 118.378906 25.742188 C 117.417969 26.03125 116.75 26.222656 115.980469 26.414062 C 115.214844 26.605469 114.257812 26.890625 112.914062 27.5625 C 113.394531 27.371094 113.777344 26.988281 114.066406 26.796875 C 112.914062 27.5625 111.667969 28.230469 110.328125 29 C 108.984375 29.667969 107.546875 30.433594 106.300781 31.199219 C 103.714844 32.734375 101.414062 34.167969 100.550781 35.414062 C 100.648438 34.648438 98.347656 36.085938 96.238281 37.425781 C 94.226562 38.765625 92.597656 40.011719 93.84375 38.382812 C 92.121094 39.722656 89.628906 42.210938 89.246094 42.882812 C 89.050781 42.402344 87.902344 43.265625 86.65625 44.320312 C 85.984375 44.894531 85.316406 45.46875 84.644531 46.042969 C 83.972656 46.617188 83.398438 47.097656 82.824219 47.480469 C 82.535156 48.148438 81.671875 49.105469 80.714844 50.066406 C 79.660156 51.023438 78.703125 52.363281 78.03125 53.320312 C 78.605469 52.457031 78.894531 51.882812 78.511719 51.980469 C 76.976562 54.277344 77.167969 53.511719 75.253906 54.949219 C 74.101562 56.382812 74.484375 56.480469 74.773438 56.289062 C 75.15625 56.097656 75.636719 55.90625 75.15625 56.863281 C 73.046875 59.257812 74.390625 56.863281 73.71875 57.054688 L 71.515625 61.460938 C 70.84375 62.128906 70.363281 62.609375 69.980469 62.800781 C 69.3125 64.332031 68.925781 65.769531 67.296875 67.398438 L 69.503906 64.046875 L 68.257812 65.097656 L 67.203125 67.300781 C 66.914062 68.066406 66.628906 68.832031 66.339844 69.503906 C 62.507812 75.152344 62.507812 72.855469 61.835938 71.992188 L 63.082031 69.40625 C 62.699219 69.3125 61.644531 70.941406 60.972656 72.089844 C 60.207031 73.046875 62.125 67.492188 63.65625 64.621094 C 66.050781 60.980469 66.53125 60.789062 66.820312 60.886719 C 67.011719 60.886719 67.105469 61.078125 67.394531 60.886719 C 67.683594 60.695312 68.066406 60.117188 69.023438 59.066406 L 71.035156 55.90625 C 71.707031 54.851562 72.378906 53.800781 73.144531 52.839844 L 73.433594 53.03125 C 74.390625 52.265625 74.582031 51.5 74.773438 51.214844 C 74.773438 51.597656 75.828125 50.449219 77.167969 49.011719 C 78.605469 47.574219 80.234375 45.851562 81.386719 44.894531 L 80.332031 45.085938 C 81.003906 44.222656 81.671875 43.457031 82.34375 42.789062 C 83.015625 42.117188 83.78125 41.542969 84.453125 40.96875 C 85.125 40.394531 85.792969 39.914062 86.464844 39.4375 C 86.847656 39.246094 87.136719 38.957031 87.421875 38.765625 C 87.808594 38.574219 88.09375 38.382812 88.476562 38.191406 C 91.257812 36.5625 93.75 35.125 96.433594 33.117188 C 97.582031 32.0625 98.828125 30.914062 100.074219 29.957031 L 101.222656 30.050781 C 102.375 29.191406 102.949219 28.617188 103.714844 27.945312 C 104.578125 27.273438 105.632812 26.605469 107.738281 25.742188 C 109.65625 24.976562 111.382812 24.113281 113.296875 23.347656 C 115.214844 22.582031 117.035156 21.816406 118.953125 21.050781 C 120.871094 20.285156 122.785156 19.613281 124.703125 18.847656 C 126.621094 18.082031 128.632812 17.507812 130.546875 16.835938 C 138.40625 14.253906 146.550781 12.144531 154.601562 11.1875 C 154.410156 11.09375 153.933594 11.09375 152.878906 11.1875 C 160.066406 10.996094 165.433594 9.75 170.796875 9.082031 C 172.140625 8.890625 173.480469 8.699219 174.824219 8.410156 C 176.164062 8.21875 177.507812 8.125 178.945312 8.027344 C 180.382812 7.933594 181.722656 7.933594 183.257812 7.933594 C 184.695312 7.933594 186.226562 7.933594 187.855469 8.21875 L 186.996094 8.410156 C 193.511719 8.507812 186.132812 8.601562 190.828125 9.175781 C 191.308594 8.792969 193.320312 8.699219 195.8125 8.699219 C 197.058594 8.699219 198.300781 8.792969 199.546875 8.890625 C 200.792969 8.984375 201.945312 9.082031 202.902344 9.082031 C 202.328125 9.175781 200.984375 9.082031 199.933594 9.082031 C 200.601562 9.367188 200.890625 9.847656 202.710938 9.847656 C 204.820312 9.464844 208.171875 9.464844 211.71875 9.941406 C 215.265625 10.324219 219.195312 10.804688 222.453125 11.378906 C 222.835938 11.761719 224.371094 12.335938 226.09375 13.007812 C 226.957031 13.390625 227.914062 13.675781 228.875 14.058594 C 229.734375 14.445312 230.597656 14.921875 231.269531 15.304688 C 231.941406 15.304688 233.28125 15.210938 234.433594 15.113281 C 236.636719 16.070312 238.457031 16.261719 240.183594 16.453125 C 238.167969 15.878906 236.347656 15.402344 235.007812 15.113281 C 235.101562 15.113281 235.101562 15.113281 235.199219 15.113281 C 235.007812 15.113281 234.625 15.019531 234.335938 14.921875 C 232.898438 14.539062 232.226562 14.445312 232.515625 14.539062 C 230.023438 13.390625 232.800781 14.15625 232.800781 13.582031 C 234.910156 14.15625 239.320312 15.113281 239.703125 15.6875 C 240.949219 16.070312 241.714844 16.453125 243.058594 16.933594 C 243.917969 17.125 244.6875 17.316406 245.644531 17.699219 L 245.164062 17.601562 C 245.261719 17.699219 245.453125 17.890625 245.644531 17.988281 C 247.5625 18.847656 250.148438 19.328125 252.449219 20.09375 C 254.84375 20.761719 257.144531 21.339844 258.871094 21.816406 C 255.324219 21.242188 259.347656 22.964844 259.15625 23.445312 C 259.539062 23.539062 255.515625 21.914062 250.53125 19.902344 C 250.914062 20.09375 251.105469 20.285156 251.105469 20.570312 C 253.214844 21.722656 255.035156 22.296875 257.238281 22.964844 C 258.292969 23.347656 259.445312 23.636719 260.691406 24.113281 C 261.9375 24.6875 263.277344 25.265625 264.714844 26.03125 C 264.332031 25.933594 263.46875 25.648438 263.660156 25.933594 C 265.769531 27.082031 267.972656 27.5625 268.644531 27.5625 C 269.027344 28.230469 273.339844 31.007812 275.640625 32.0625 C 276.695312 32.351562 277.269531 32.445312 277.941406 32.734375 C 278.609375 33.019531 279.472656 33.308594 281.199219 34.457031 L 279.472656 33.882812 C 283.402344 36.660156 283.113281 35.414062 286.277344 37.808594 C 285.03125 36.851562 284.648438 37.136719 285.605469 37.808594 C 286.660156 38.382812 287.523438 38.859375 288.195312 39.246094 C 288.863281 39.628906 289.34375 39.914062 289.917969 40.105469 C 290.878906 40.585938 291.835938 40.96875 293.464844 41.636719 L 292.601562 41.734375 C 293.5625 42.308594 294.613281 42.980469 295.859375 43.648438 C 297.011719 44.320312 298.257812 45.085938 299.214844 45.851562 C 301.324219 47.382812 302.855469 48.628906 302.664062 49.011719 C 302.570312 48.054688 304.484375 49.394531 306.785156 51.308594 C 308.988281 53.320312 311.480469 55.90625 312.917969 57.152344 C 311.960938 56.289062 311.578125 56.382812 311.386719 56.382812 C 314.546875 58.683594 317.328125 61.554688 320.011719 64.523438 L 323.84375 69.121094 C 325.089844 70.652344 326.238281 72.28125 327.484375 73.8125 C 327.484375 74.289062 327.582031 74.867188 327.582031 75.34375 C 328.828125 76.972656 329.976562 77.738281 331.222656 78.601562 C 332.46875 79.460938 333.621094 80.324219 334.863281 82.238281 L 333.621094 81.183594 C 334.769531 82.8125 335.726562 84.25 336.6875 85.496094 C 337.546875 86.835938 338.21875 87.984375 338.890625 89.039062 C 340.328125 91.238281 341.382812 93.441406 343.011719 96.316406 L 342.4375 96.507812 C 343.875 98.324219 345.121094 101.007812 346.460938 102.921875 C 346.941406 105.601562 349.433594 110.199219 351.730469 115.5625 C 352.308594 116.902344 352.882812 118.242188 353.457031 119.679688 C 354.03125 121.019531 354.605469 122.457031 354.988281 123.796875 C 355.851562 126.574219 356.621094 129.253906 356.90625 131.746094 L 358.152344 132.03125 C 359.207031 135.574219 360.546875 140.171875 360.164062 141.992188 L 359.972656 141.222656 C 359.496094 141.128906 359.78125 142.085938 360.070312 143.234375 C 360.453125 144.480469 360.933594 145.917969 361.027344 147.066406 C 361.507812 148.789062 362.371094 150.320312 362.273438 148.886719 C 362.5625 151.375 363.039062 154.054688 363.421875 156.832031 C 363.808594 159.707031 364.285156 162.578125 364.476562 165.355469 C 364.574219 166.792969 364.765625 168.132812 364.859375 169.472656 C 364.957031 170.8125 364.957031 172.058594 365.050781 173.300781 C 365.050781 174.453125 365.050781 175.601562 365.050781 176.652344 C 364.957031 177.613281 364.957031 178.570312 364.859375 179.335938 C 365.050781 181.824219 365.246094 184.121094 365.339844 186.324219 C 365.4375 188.527344 365.628906 190.730469 365.628906 192.933594 C 365.628906 195.136719 365.722656 197.433594 365.53125 199.730469 C 365.4375 202.125 365.246094 204.519531 364.859375 207.199219 L 364.765625 207.105469 C 364.285156 210.648438 362.753906 217.734375 361.792969 217.542969 C 361.125 221.277344 361.027344 224.4375 360.453125 227.789062 C 360.070312 231.140625 359.300781 234.585938 357.769531 238.894531 C 357.863281 238.226562 357.960938 237.554688 357.960938 236.882812 C 357.195312 239.085938 356.425781 242.726562 356.234375 243.683594 C 355.949219 244.449219 355.949219 243.777344 355.851562 243.683594 C 354.894531 245.695312 354.894531 247.035156 354.320312 248.664062 L 354.222656 247.894531 C 353.839844 248.757812 353.457031 249.621094 353.074219 250.578125 C 352.691406 251.535156 352.308594 252.492188 351.828125 253.546875 C 351.445312 254.597656 350.964844 255.652344 350.582031 256.800781 C 350.199219 257.949219 349.625 259.003906 349.238281 260.152344 C 348.761719 261.300781 348.28125 262.453125 347.800781 263.601562 C 347.226562 264.75 346.75 265.898438 346.171875 267.046875 C 345.597656 268.195312 345.121094 269.347656 344.542969 270.398438 C 343.96875 271.453125 343.394531 272.503906 342.722656 273.558594 C 343.488281 272.027344 342.722656 272.601562 342.246094 273.175781 C 341.957031 274.132812 341.476562 275.472656 340.808594 276.910156 C 340.039062 278.347656 339.175781 279.878906 338.21875 281.507812 C 337.261719 283.039062 336.207031 284.570312 335.34375 285.910156 C 334.480469 287.253906 333.714844 288.402344 333.140625 289.261719 C 333.523438 288.496094 333.90625 287.828125 334.195312 287.0625 C 330.265625 293.667969 329.402344 291.753906 325.1875 298.074219 L 328.445312 295.105469 C 326.335938 297.402344 324.898438 299.605469 325.664062 299.316406 C 322.980469 301.808594 324.707031 299.125 321.066406 303.148438 C 320.683594 303.148438 323.460938 300.082031 322.023438 301.136719 C 320.203125 302.859375 318.285156 304.488281 316.371094 306.117188 C 316.175781 306.210938 315.507812 306.882812 313.878906 308.703125 C 315.316406 309.179688 309.566406 313.105469 313.109375 311.382812 C 305.539062 318.945312 298.066406 323.925781 291.070312 329.769531 C 290.589844 329.960938 290.015625 330.152344 289.34375 330.535156 C 288.671875 330.917969 287.90625 331.300781 287.140625 331.777344 C 285.511719 332.734375 283.882812 333.980469 282.15625 334.9375 C 280.527344 335.992188 278.898438 336.949219 277.75 337.429688 C 276.597656 338.003906 275.832031 338.097656 275.832031 337.621094 C 271.421875 340.207031 267.972656 342.503906 265.480469 344.515625 C 266.441406 344.132812 267.496094 343.363281 268.355469 342.789062 C 267.878906 343.269531 266.25 344.324219 264.523438 345.28125 C 262.703125 346.238281 260.785156 347.292969 259.636719 347.769531 C 261.074219 346.90625 262.988281 345.664062 264.8125 344.609375 C 266.632812 343.460938 268.261719 342.214844 269.21875 341.355469 C 267.207031 342.597656 264.8125 344.035156 262.703125 345.28125 C 261.648438 345.949219 260.59375 346.523438 259.730469 347.097656 C 258.773438 347.578125 258.007812 348.058594 257.433594 348.34375 L 255.996094 348.058594 C 252.734375 350.257812 252.734375 348.726562 249.476562 351.027344 L 250.246094 351.027344 C 246.890625 352.367188 245.261719 353.226562 243.726562 353.992188 C 242.195312 354.855469 240.660156 355.621094 237.5 356.769531 L 237.691406 356.386719 C 236.539062 356.675781 235.292969 357.34375 233.953125 357.824219 C 232.609375 358.304688 231.269531 358.6875 230.023438 358.6875 L 234.238281 357.441406 C 233.664062 356.960938 230.3125 357.726562 228.875 357.824219 C 224.464844 359.261719 227.53125 359.164062 225.328125 359.929688 C 224.273438 359.644531 225.039062 359.738281 226.476562 358.78125 C 223.984375 359.453125 221.109375 360.410156 218.332031 361.175781 C 216.988281 361.558594 215.648438 361.941406 214.402344 362.324219 C 213.15625 362.707031 212.101562 362.996094 211.238281 363.378906 C 210.953125 363.378906 211.238281 363.1875 211.238281 363.1875 C 209.898438 363.378906 208.652344 363.664062 207.40625 363.953125 C 206.160156 364.238281 205.011719 364.429688 203.859375 364.71875 C 202.710938 365.007812 201.65625 365.199219 200.699219 365.390625 C 199.738281 365.484375 198.78125 365.582031 197.917969 365.582031 L 198.972656 365.390625 C 194.660156 365.101562 187.855469 367.113281 186.898438 365.773438 C 184.886719 365.675781 191.5 365.484375 188.238281 365.007812 C 185.078125 365.007812 184.023438 365.199219 183.066406 365.582031 C 182.105469 365.867188 181.246094 366.347656 178.464844 366.058594 C 179.230469 366.15625 178.945312 366.058594 179.230469 365.867188 C 177.21875 365.867188 174.824219 365.964844 172.425781 365.867188 C 170.03125 365.773438 167.539062 365.773438 165.238281 365.675781 C 163.898438 365.292969 162.171875 365.007812 160.257812 364.71875 C 159.296875 364.621094 158.246094 364.527344 157.191406 364.429688 C 156.136719 364.335938 155.082031 364.144531 154.027344 364.046875 C 151.917969 363.761719 149.714844 363.472656 147.703125 363.089844 C 145.691406 362.613281 143.871094 362.132812 142.433594 361.464844 C 144.347656 362.324219 140.800781 361.65625 140.707031 361.941406 C 140.707031 361.941406 140.996094 361.847656 140.800781 361.75 C 138.503906 361.269531 138.214844 361.558594 137.257812 361.558594 C 135.53125 360.695312 130.933594 360.410156 129.78125 359.835938 C 129.6875 360.121094 127.863281 359.546875 125.949219 358.878906 C 129.972656 359.738281 127.386719 358.6875 129.300781 358.78125 C 123.457031 356.867188 122.113281 358.113281 116.078125 355.621094 L 112.914062 353.898438 C 111.957031 354.472656 106.496094 351.792969 106.496094 352.175781 C 105.535156 351.503906 104.195312 350.738281 104.578125 350.449219 C 102.085938 349.589844 98.828125 347.484375 97.675781 347.578125 L 99.882812 348.917969 C 98.15625 347.960938 96.527344 347.195312 94.996094 346.621094 C 93.460938 345.855469 92.121094 345.28125 90.777344 344.609375 C 89.4375 344.035156 88.09375 343.363281 86.847656 342.695312 C 85.601562 342.023438 84.355469 341.164062 83.109375 340.300781 L 83.878906 339.246094 C 82.25 338.003906 80.523438 337.140625 78.988281 336.277344 C 77.457031 335.417969 75.921875 334.460938 74.675781 333.214844 C 75.445312 334.269531 75.730469 334.269531 73.335938 333.214844 C 74.582031 334.171875 77.074219 335.511719 79.277344 336.949219 L 74.292969 334.460938 C 76.691406 335.992188 79.085938 337.523438 81.671875 338.863281 C 78.320312 337.429688 78.511719 337.429688 79.566406 338.671875 C 77.265625 337.523438 76.210938 336.46875 75.15625 335.609375 C 74.101562 334.746094 73.046875 333.886719 70.84375 332.640625 C 69.503906 331.394531 71.226562 332.160156 69.789062 330.726562 C 67.875 329.578125 66.339844 328.140625 64.902344 326.800781 C 63.464844 325.457031 62.316406 324.117188 60.878906 323.351562 C 60.207031 322.585938 62.316406 324.5 62.316406 324.117188 C 60.109375 322.394531 58.578125 321.054688 57.621094 320.765625 L 59.34375 322.488281 C 57.714844 321.054688 57.042969 321.246094 54.359375 318.179688 C 52.445312 316.746094 51.007812 316.265625 52.921875 318.085938 C 52.0625 317.414062 50.71875 315.597656 51.582031 315.882812 C 50.433594 314.828125 49.664062 314.160156 49.089844 313.679688 C 48.515625 313.296875 48.132812 313.105469 47.84375 312.914062 C 47.171875 312.53125 46.503906 312.148438 44.585938 309.753906 C 44.875 310.042969 45.257812 310.328125 45.160156 310.136719 C 44.203125 308.894531 43.246094 308.03125 42.574219 307.265625 C 46.3125 311.285156 42.191406 305.351562 46.40625 310.234375 C 46.40625 309.753906 45.640625 308.796875 44.683594 307.839844 C 43.722656 306.882812 42.667969 305.636719 42.09375 304.777344 C 39.699219 302.667969 41.136719 305.160156 39.792969 304.105469 C 39.984375 304.007812 39.125 302.957031 38.261719 301.710938 L 38.835938 303.148438 C 37.972656 302.09375 37.109375 301.136719 36.152344 299.988281 L 37.015625 300.945312 L 37.972656 301.902344 C 37.015625 300.847656 36.25 299.222656 35.097656 297.402344 C 34.523438 296.539062 33.949219 295.582031 33.277344 294.722656 C 32.605469 293.761719 31.839844 292.902344 31.074219 291.847656 C 31.9375 292.902344 33.851562 294.722656 32.128906 291.847656 C 28.871094 287.445312 31.648438 290.699219 30.308594 287.921875 C 28.773438 285.71875 28.484375 285.625 28.007812 285.242188 C 27.527344 284.859375 27.046875 284.1875 25.132812 280.644531 C 24.75 279.878906 24.84375 280.742188 25.132812 281.601562 C 22.542969 276.816406 21.011719 274.230469 19 269.347656 C 19.859375 271.453125 20.53125 273.175781 18.902344 270.496094 C 19.382812 270.972656 19 270.015625 18.421875 268.578125 C 17.945312 267.144531 17.175781 265.324219 16.890625 264.367188 L 16.410156 263.984375 C 16.027344 262.355469 16.792969 263.984375 17.464844 265.132812 C 17.371094 265.132812 17.464844 265.609375 17.847656 266.472656 C 19.09375 268.769531 19.574219 267.527344 18.039062 263.695312 C 16.125 259.769531 15.738281 260.632812 15.738281 261.492188 C 15.164062 260.152344 14.78125 259.101562 14.398438 258.332031 C 14.015625 257.566406 13.632812 256.992188 13.25 256.324219 C 12.480469 255.175781 11.8125 254.023438 11.042969 251.246094 C 10.660156 250.003906 10.375 245.597656 9.414062 241.578125 C 8.9375 240.617188 9.03125 241.863281 9.320312 243.109375 C 9.605469 244.351562 9.796875 245.503906 9.222656 244.449219 C 9.128906 243.585938 9.03125 242.726562 8.839844 241.863281 C 8.746094 241.003906 8.550781 240.140625 8.359375 239.277344 C 7.976562 237.554688 7.402344 235.832031 6.828125 234.011719 C 6.253906 232.191406 5.773438 230.277344 5.390625 228.265625 C 5.007812 226.253906 4.527344 224.148438 4.527344 221.851562 L 5.390625 222.902344 C 5.199219 220.796875 5.007812 218.785156 4.625 216.488281 L 4.625 219.550781 C 4.433594 218.5 4.238281 216.777344 4.144531 215.53125 C 4.046875 214.285156 4.238281 213.425781 4.527344 214.191406 C 4.046875 211.890625 3.953125 210.457031 3.855469 209.117188 C 3.855469 208.445312 3.855469 207.773438 3.855469 206.914062 C 3.855469 206.148438 3.855469 205.285156 3.953125 204.136719 C 3.953125 205.285156 3.953125 205.859375 3.953125 206.148438 C 3.953125 206.433594 3.953125 206.433594 3.953125 206.339844 C 3.953125 206.242188 4.046875 205.957031 4.335938 207.582031 C 4.335938 205.1875 4.433594 203.847656 4.433594 202.699219 C 4.433594 201.550781 4.335938 200.6875 4.238281 198.964844 C 4.527344 199.539062 4.910156 197.71875 4.910156 196.476562 C 4.71875 194.945312 4.816406 192.742188 4.910156 190.539062 C 4.910156 189.390625 5.007812 188.242188 5.007812 187.089844 C 5.101562 185.941406 5.199219 184.792969 5.292969 183.644531 L 5.484375 183.644531 C 5.675781 181.824219 5.871094 179.910156 6.15625 178.089844 C 6.539062 176.269531 7.019531 174.355469 7.402344 172.535156 C 8.167969 168.800781 9.414062 165.164062 9.988281 161.429688 C 9.988281 161.332031 9.988281 161.140625 10.085938 161.046875 L 9.894531 161.621094 C 9.222656 162.769531 9.414062 161.332031 9.988281 159.320312 C 10.566406 157.3125 11.332031 154.820312 11.523438 153.671875 C 11.8125 153.289062 12.195312 153.097656 12.671875 151.949219 C 12.097656 151.660156 13.34375 149.078125 13.441406 148.023438 C 14.589844 145.726562 14.015625 148.597656 15.644531 144.574219 C 16.21875 143.042969 16.027344 142.660156 15.738281 142.757812 C 16.410156 142.085938 17.753906 139.597656 18.902344 137.585938 C 18.710938 138.351562 17.945312 139.40625 17.753906 139.882812 C 17.945312 140.265625 18.421875 138.832031 18.902344 139.023438 C 19.859375 137.203125 18.710938 138.0625 20.050781 135.863281 L 19.476562 138.257812 C 20.050781 137.394531 20.4375 136.148438 20.628906 135.671875 C 20.050781 137.105469 20.628906 137.105469 21.011719 137.105469 C 23.3125 131.648438 20.339844 135.480469 19.957031 134.90625 C 22.925781 130.117188 24.558594 125.902344 26.855469 122.167969 L 26.953125 123.222656 C 28.007812 121.402344 28.484375 120.445312 28.675781 119.679688 L 30.5 117 C 29.636719 118.722656 29.445312 119.296875 29.730469 119.679688 C 30.691406 118.242188 31.746094 116.519531 32.703125 114.988281 C 33.660156 113.550781 34.332031 112.304688 34.332031 111.636719 L 34.332031 111.828125 C 37.300781 108.1875 43.722656 100.910156 43.722656 101.390625 C 44.488281 100.433594 45.351562 99.378906 46.214844 98.421875 C 47.078125 97.464844 47.941406 96.601562 48.707031 95.742188 C 50.238281 94.113281 51.292969 92.964844 51.101562 92.582031 C 53.019531 90.28125 57.332031 87.984375 58.289062 85.78125 C 61.261719 83.867188 58.578125 85.78125 58.195312 86.929688 C 61.164062 85.015625 62.984375 81.570312 64.613281 81.761719 C 67.488281 78.886719 63.753906 82.238281 64.421875 80.898438 C 65.765625 81.183594 70.363281 76.109375 73.910156 74.386719 C 75.0625 73.046875 72.378906 75.25 74.484375 73.046875 C 74.390625 73.429688 75.730469 72.472656 76.402344 72.089844 L 76.59375 71.132812 L 80.714844 70.171875 C 85.125 66.246094 79.085938 69.886719 85.316406 65.289062 L 84.933594 65.578125 C 87.039062 65.003906 89.339844 62.128906 94.417969 59.734375 C 92.695312 60.597656 93.941406 60.40625 93.460938 60.886719 C 94.324219 60.214844 95.1875 59.640625 96.046875 59.066406 C 95.855469 59.257812 95.761719 59.351562 96.046875 59.257812 C 98.636719 58.394531 97.964844 57.820312 100.9375 56.671875 C 99.113281 57.820312 99.882812 57.917969 100.839844 57.726562 L 104.480469 54.949219 L 103.234375 56.671875 C 105.152344 55.617188 107.453125 54.085938 109.65625 52.839844 C 111.765625 51.597656 113.777344 50.542969 115.023438 50.640625 L 113.105469 51.691406 C 113.394531 51.789062 114.832031 51.789062 117.324219 50.160156 C 118.089844 49.683594 118.472656 48.914062 117.324219 49.488281 L 119.433594 48.722656 C 119.046875 49.203125 117.609375 50.066406 115.886719 51.023438 C 114.160156 51.980469 112.246094 53.03125 110.710938 53.800781 C 111.574219 53.128906 113.875 51.789062 113.011719 51.789062 C 110.328125 53.226562 107.835938 54.949219 105.34375 56.480469 C 106.300781 55.714844 106.78125 55.042969 107.164062 54.566406 C 104.003906 55.808594 105.152344 56.097656 102.949219 57.34375 C 101.988281 57.628906 101.320312 57.726562 101.796875 57.246094 C 100.457031 58.109375 99.308594 58.875 98.0625 59.542969 C 96.816406 60.3125 95.472656 60.886719 94.035156 61.652344 C 94.035156 61.652344 94.800781 61.078125 95.28125 60.597656 C 95.761719 60.117188 96.046875 59.734375 95.089844 60.117188 C 90.011719 63.566406 89.339844 64.8125 84.070312 68.832031 C 78.320312 73.90625 71.609375 76.972656 67.96875 80.898438 C 67.875 81.28125 71.324219 78.792969 68.734375 81.089844 C 68.832031 80.324219 66.914062 82.144531 66.628906 82.046875 C 64.230469 85.015625 62.316406 85.496094 60.6875 87.695312 C 61.070312 87.121094 59.25 88.460938 58.097656 89.324219 C 58.003906 88.558594 54.9375 92.003906 58.195312 87.503906 C 56.46875 89.804688 54.648438 91.429688 53.019531 93.058594 C 51.390625 94.6875 49.953125 96.21875 49.089844 98.324219 L 50.238281 97.367188 C 48.898438 98.613281 47.460938 99.953125 46.214844 101.292969 L 46.40625 101.101562 C 44.683594 102.828125 44.585938 103.210938 41.902344 105.316406 C 42.667969 104.070312 44.011719 102.539062 44.875 101.390625 C 43.628906 102.347656 42.667969 103.59375 41.808594 104.933594 C 40.945312 106.273438 40.082031 107.710938 39.125 109.050781 C 38.835938 108.667969 41.136719 106.175781 40.082031 106.65625 C 38.546875 108.476562 37.589844 110.296875 36.34375 112.113281 L 36.34375 111.730469 C 32.414062 116.136719 35.960938 114.316406 32.796875 117.285156 C 32.988281 117.285156 32.796875 117.859375 33.085938 117.667969 C 31.9375 118.816406 29.445312 121.691406 31.265625 118.433594 C 30.113281 120.15625 29.0625 122.265625 28.773438 123.222656 C 30.019531 121.976562 30.113281 121.5 30.882812 121.210938 C 29.445312 123.605469 28.101562 125.902344 26.761719 128.296875 C 26.28125 129.0625 26.855469 127.628906 27.433594 126.574219 C 24.363281 130.308594 22.257812 134.808594 20.339844 139.5 C 18.421875 144.191406 16.601562 148.980469 14.015625 153.863281 C 14.878906 152.8125 14.109375 154.726562 14.015625 155.777344 C 13.726562 156.640625 13.441406 157.503906 13.058594 158.554688 C 12.769531 159.515625 12.386719 160.566406 12.097656 161.621094 C 11.523438 163.726562 10.949219 165.738281 10.375 167.367188 L 10.375 166.3125 C 10.277344 166.695312 10.085938 167.652344 9.894531 168.609375 C 9.796875 169.566406 9.605469 170.527344 9.511719 171.386719 C 9.222656 173.207031 9.03125 174.835938 8.839844 176.460938 C 8.457031 179.621094 8.265625 182.398438 7.785156 185.175781 C 7.882812 185.464844 7.402344 185.082031 7.402344 184.121094 C 7.402344 186.132812 6.921875 188.433594 6.636719 190.25 C 6.253906 192.070312 6.0625 193.601562 6.636719 194.175781 L 6.828125 192.644531 C 6.730469 193.699219 6.636719 194.65625 6.636719 195.710938 C 6.636719 196.761719 6.636719 197.816406 6.636719 198.871094 C 6.730469 200.976562 6.730469 203.082031 6.921875 205.285156 C 7.402344 209.59375 7.785156 213.808594 8.457031 217.925781 C 7.976562 219.9375 7.785156 213.136719 7.210938 214.957031 C 7.402344 217.828125 7.785156 220.796875 8.359375 223.671875 C 9.03125 226.636719 9.511719 229.605469 10.085938 232.671875 C 9.796875 231.714844 9.703125 231.90625 9.605469 231.425781 C 10.566406 237.652344 10.085938 230.566406 11.234375 235.734375 C 10.851562 235.542969 10.851562 235.832031 11.042969 237.554688 L 11.90625 238.894531 C 11.90625 239.183594 11.425781 239.277344 11.140625 238.511719 C 11.425781 238.992188 11.714844 239.851562 12.097656 240.808594 C 12.480469 241.769531 12.769531 242.917969 13.152344 243.96875 C 13.824219 246.171875 14.496094 248.28125 15.164062 249.046875 C 15.164062 249.523438 14.109375 248.472656 14.109375 249.238281 C 14.878906 251.917969 15.835938 253.738281 16.699219 255.367188 C 16.792969 257.472656 18.902344 261.875 18.421875 260.917969 C 20.246094 265.707031 19.09375 261.492188 21.011719 264.84375 L 19.667969 261.015625 L 21.105469 264.269531 L 21.875 265.898438 L 22.734375 267.429688 C 22.257812 266.664062 21.683594 265.898438 21.203125 265.035156 C 21.683594 266.570312 22.640625 268.003906 23.40625 269.539062 C 24.269531 271.070312 25.226562 272.601562 26.089844 274.230469 C 25.898438 273.65625 25.800781 273.082031 25.609375 272.503906 C 26.28125 273.75 27.144531 274.996094 27.910156 276.144531 C 27.433594 276.910156 30.5 281.027344 28.484375 279.398438 C 28.964844 280.261719 29.445312 281.125 29.828125 281.984375 C 30.308594 282.75 30.785156 283.519531 31.265625 284.1875 C 32.222656 285.625 33.183594 286.964844 34.234375 288.210938 C 35.195312 289.550781 36.25 290.699219 37.300781 291.945312 C 38.355469 293.1875 39.410156 294.53125 40.5625 295.964844 C 39.792969 294.914062 39.984375 295.488281 39.699219 295.296875 C 40.847656 297.113281 42.09375 298.265625 43.148438 299.414062 C 44.203125 300.464844 45.160156 301.328125 46.214844 302.191406 C 45.734375 302 44.96875 301.230469 44.777344 301.328125 C 46.40625 303.242188 46.980469 303.816406 47.652344 304.296875 C 48.324219 304.777344 49.089844 305.351562 51.101562 307.265625 C 49.761719 306.402344 50.046875 306.882812 51.007812 308.03125 C 51.101562 307.648438 52.0625 308.414062 52.828125 309.085938 C 50.816406 308.125 51.773438 309.371094 52.921875 310.710938 C 54.074219 312.054688 55.511719 313.394531 54.074219 313.011719 C 54.550781 313.011719 61.355469 318.371094 59.917969 316.265625 L 58.769531 315.308594 C 58.960938 314.828125 60.300781 316.457031 61.546875 317.320312 C 60.878906 316.839844 60.207031 316.363281 60.109375 316.457031 C 61.738281 317.605469 63.273438 318.851562 64.808594 320.191406 C 65.574219 320.863281 66.339844 321.53125 67.203125 322.105469 C 68.066406 322.683594 68.832031 323.351562 69.695312 324.023438 C 71.324219 325.265625 72.953125 326.609375 74.773438 327.851562 C 76.59375 329 78.414062 330.246094 80.234375 331.394531 C 79.46875 331.109375 76.402344 329.382812 78.222656 330.726562 C 85.410156 335.894531 90.296875 337.621094 98.347656 341.355469 C 98.15625 342.503906 89.820312 336.949219 89.050781 337.621094 C 97.292969 342.023438 106.207031 345.855469 116.078125 349.015625 C 117.515625 350.355469 120.007812 351.027344 122.785156 351.792969 C 125.660156 352.460938 128.726562 353.132812 131.699219 354.664062 C 131.21875 353.992188 134.382812 354.664062 137.734375 355.429688 C 136.488281 355.527344 140.035156 356.484375 138.980469 356.484375 C 140.515625 356.675781 143.484375 356.960938 145.976562 357.535156 C 147.222656 357.824219 148.375 358.113281 149.140625 358.304688 C 149.90625 358.496094 150.386719 358.78125 150.289062 358.972656 C 150.769531 358.589844 152.398438 358.78125 154.21875 359.070312 C 156.039062 359.355469 158.050781 359.835938 159.394531 359.546875 C 161.3125 359.929688 163.324219 360.027344 165.527344 360.21875 C 166.582031 360.3125 167.730469 360.3125 168.882812 360.410156 C 170.03125 360.503906 171.183594 360.503906 172.425781 360.695312 C 171.566406 360.3125 172.8125 360.410156 174.441406 360.410156 C 176.070312 360.410156 178.175781 360.410156 179.039062 360.3125 C 178.5625 360.3125 177.507812 360.410156 177.792969 360.503906 C 178.5625 360.792969 179.902344 360.695312 181.4375 360.503906 C 182.96875 360.3125 184.695312 360.121094 186.035156 360.21875 C 187.28125 360.410156 185.75 360.792969 187.761719 360.792969 C 187.761719 360.3125 195.042969 359.453125 197.824219 359.546875 C 196.578125 359.644531 196.578125 359.929688 195.8125 360.121094 C 202.230469 359.164062 208.75 358.113281 215.359375 356.867188 C 221.972656 355.621094 228.394531 353.707031 234.625 351.3125 C 233.953125 351.792969 233.28125 352.269531 232.609375 352.75 C 240.757812 351.027344 237.402344 349.972656 243.535156 347.867188 C 251.875 344.898438 260.308594 341.355469 268.355469 337.238281 C 276.40625 333.121094 284.074219 328.332031 290.878906 322.875 C 291.738281 321.914062 290.109375 323.066406 289.824219 322.96875 C 291.070312 322.105469 291.835938 322.394531 293.175781 320.863281 L 292.601562 320.863281 C 294.328125 319.808594 296.246094 318.371094 298.351562 316.746094 C 300.363281 315.019531 302.472656 313.203125 304.390625 311.285156 C 306.402344 309.371094 308.320312 307.550781 310.042969 305.925781 C 310.90625 305.160156 311.769531 304.390625 312.535156 303.816406 C 313.300781 303.148438 313.972656 302.667969 314.644531 302.285156 C 319.4375 296.347656 323.75 292.902344 328.445312 284.953125 C 330.457031 282.847656 327.007812 288.113281 329.402344 284.953125 C 330.167969 283.804688 330.9375 282.464844 331.605469 281.316406 C 332.277344 280.070312 333.042969 278.824219 333.714844 277.582031 L 333.523438 277.964844 C 334.386719 276.046875 335.632812 274.039062 336.972656 271.835938 C 337.644531 270.6875 338.316406 269.632812 339.082031 268.386719 C 339.847656 267.238281 340.613281 266.089844 341.285156 264.84375 C 342.050781 263.601562 342.820312 262.355469 343.488281 261.109375 C 344.257812 259.867188 344.832031 258.523438 345.503906 257.28125 C 346.84375 254.789062 347.898438 252.109375 348.664062 249.621094 L 348.570312 250.003906 C 348.761719 250.289062 349.910156 248.472656 350.390625 246.84375 C 350.390625 246.269531 349.910156 247.226562 349.335938 248.089844 C 350.007812 245.886719 350.582031 244.066406 351.0625 242.535156 C 351.539062 241.003906 351.828125 239.660156 352.210938 238.417969 C 352.59375 237.171875 352.976562 236.023438 353.265625 234.683594 C 353.648438 233.339844 354.03125 231.90625 354.511719 230.179688 C 354.03125 233.339844 355.660156 227.5 356.234375 227.308594 C 356.332031 225.394531 355.375 228.265625 356.140625 224.054688 C 356.523438 222.617188 356.8125 221.085938 357.097656 219.648438 C 357.386719 218.210938 357.769531 216.871094 358.058594 215.433594 C 358.34375 214.09375 358.632812 212.753906 358.917969 211.414062 C 359.207031 210.074219 359.496094 208.828125 359.6875 207.582031 C 359.398438 205.476562 359.878906 202.796875 359.300781 202.605469 C 359.398438 200.878906 359.496094 199.347656 359.589844 197.910156 C 359.589844 197.144531 359.6875 196.476562 359.6875 195.804688 C 359.6875 195.136719 359.6875 194.367188 359.6875 193.699219 C 359.6875 192.261719 359.78125 190.824219 359.78125 189.101562 C 359.78125 187.472656 359.78125 185.65625 359.78125 183.546875 L 359.972656 183.355469 C 359.589844 182.207031 359.589844 180.386719 359.6875 178.664062 C 359.78125 176.941406 359.878906 175.21875 359.589844 174.453125 C 359.878906 174.644531 360.070312 175.601562 360.261719 175.3125 L 359.78125 171.484375 C 360.164062 173.300781 360.933594 174.261719 360.835938 171.101562 C 360.070312 167.84375 360.546875 172.058594 359.972656 170.429688 L 360.644531 169.375 C 360.355469 166.886719 359.496094 166.3125 359.496094 169.28125 C 358.824219 160.855469 357.097656 152.714844 355.566406 145.34375 L 356.234375 146.011719 C 355.949219 144.957031 355.660156 143.90625 355.46875 142.757812 C 355.183594 141.605469 354.894531 140.554688 354.605469 139.40625 C 354.128906 137.203125 353.648438 135.289062 353.457031 134.042969 C 353.265625 133.945312 352.785156 133.085938 352.785156 133.753906 C 350.773438 129.160156 353.457031 132.988281 351.15625 128.105469 C 351.730469 129.351562 352.308594 130.882812 352.691406 131.074219 C 352.113281 129.445312 351.445312 127.914062 350.871094 126.382812 C 350.199219 124.851562 349.625 123.222656 348.953125 121.691406 C 349.046875 121.59375 348.761719 120.0625 348.28125 117.957031 C 347.707031 115.945312 346.75 113.457031 345.789062 111.539062 C 345.503906 111.445312 345.789062 112.6875 346.171875 113.742188 L 344.925781 111.253906 C 344.925781 110.488281 344.832031 109.71875 344.734375 108.953125 L 342.4375 105.699219 L 343.011719 105.316406 C 341.574219 102.730469 340.230469 102.15625 339.175781 100.050781 C 337.261719 96.027344 336.496094 94.496094 335.917969 93.15625 C 335.34375 91.8125 334.863281 90.761719 333.523438 87.886719 C 332.085938 87.984375 327.871094 79.558594 326.144531 78.886719 C 325.570312 78.027344 324.996094 76.972656 324.324219 76.109375 C 323.652344 75.152344 322.886719 74.195312 322.214844 73.238281 C 320.777344 71.226562 318.957031 69.214844 317.136719 67.203125 C 316.273438 66.152344 315.21875 65.195312 314.261719 64.140625 C 313.300781 63.183594 312.34375 62.128906 311.289062 61.171875 C 309.183594 59.257812 307.167969 57.34375 305.15625 55.425781 L 305.921875 56 C 305.15625 55.140625 304.484375 54.46875 303.816406 53.992188 C 303.144531 53.511719 302.570312 53.226562 301.898438 52.839844 C 300.652344 52.171875 299.3125 51.5 297.394531 49.875 L 298.542969 50.542969 C 297.96875 49.96875 297.296875 49.394531 296.628906 48.722656 C 296.246094 48.4375 295.859375 48.054688 295.476562 47.765625 C 295.09375 47.480469 294.613281 47.191406 294.230469 46.808594 C 292.507812 45.5625 290.6875 44.320312 288.863281 43.074219 C 287.042969 41.828125 285.03125 40.777344 283.210938 39.820312 C 281.390625 38.859375 279.761719 38 278.324219 37.328125 C 279.472656 37.808594 279.1875 37.136719 277.460938 36.179688 C 275.832031 35.605469 278.417969 37.710938 275.449219 35.894531 C 276.3125 36.179688 275.832031 35.605469 275.066406 35.222656 L 271.710938 34.167969 C 270.753906 33.59375 269.792969 33.019531 268.738281 32.351562 C 267.78125 31.773438 266.632812 31.199219 265.578125 30.722656 C 263.46875 29.667969 261.265625 28.519531 259.0625 27.371094 C 256.761719 26.414062 254.460938 25.457031 252.257812 24.59375 C 251.105469 24.113281 249.957031 23.730469 248.808594 23.253906 C 247.65625 22.871094 246.507812 22.582031 245.355469 22.199219 C 243.824219 21.433594 245.070312 21.625 245.546875 21.53125 C 243.726562 20.953125 242.003906 20.476562 240.183594 19.902344 C 239.320312 19.613281 238.359375 19.421875 237.5 19.230469 C 236.636719 19.039062 235.675781 18.847656 234.816406 18.65625 C 233.089844 18.273438 231.269531 17.890625 229.640625 17.507812 C 227.914062 17.125 226.191406 16.933594 224.5625 16.550781 L 224.082031 15.6875 C 220.824219 15.019531 221.878906 16.359375 217.851562 14.921875 C 217.375 14.828125 218.140625 14.828125 219.097656 15.019531 C 220.058594 15.210938 221.300781 15.402344 221.878906 15.304688 C 220.25 14.828125 219.289062 14.539062 218.523438 14.445312 C 217.757812 14.347656 217.277344 14.445312 216.796875 14.445312 C 215.839844 14.539062 214.882812 14.730469 211.816406 14.15625 L 213.539062 13.582031 C 208.84375 12.335938 207.980469 13.199219 206.257812 13.484375 C 202.808594 13.675781 201.65625 13.101562 200.21875 12.527344 C 199.453125 12.242188 198.6875 11.953125 197.441406 11.667969 C 196.195312 11.476562 194.660156 11.378906 192.265625 11.476562 C 190.828125 11.859375 192.746094 12.144531 191.210938 12.433594 C 189.582031 12.335938 188.335938 12.242188 187.28125 12.242188 C 186.226562 12.242188 185.269531 12.335938 184.40625 12.335938 C 182.585938 12.433594 180.765625 12.625 177.507812 12.527344 C 173.960938 11.378906 180.765625 12.433594 177.027344 11.378906 L 182.011719 11.570312 C 177.699219 10.996094 185.84375 11.378906 185.171875 10.613281 C 183.542969 10.515625 181.53125 10.710938 179.421875 10.902344 C 178.371094 10.996094 177.21875 11.09375 176.164062 11.1875 C 175.109375 11.378906 173.960938 11.476562 173.003906 11.667969 C 173.003906 11.09375 177.792969 11.285156 175.878906 10.613281 L 173.769531 10.996094 C 174.34375 10.804688 174.441406 10.613281 175.6875 10.515625 C 174.917969 10.039062 173.195312 10.710938 171.085938 10.804688 C 170.988281 11.09375 171.085938 11.476562 171.851562 11.859375 C 171.757812 11.761719 171.566406 11.761719 171.277344 11.667969 C 170.222656 11.953125 169.074219 12.144531 167.730469 12.335938 C 167.0625 12.433594 166.390625 12.433594 165.71875 12.527344 C 165.046875 12.625 164.378906 12.71875 163.707031 12.816406 C 161.023438 13.199219 158.339844 13.582031 156.613281 14.058594 C 157.191406 13.773438 156.710938 13.867188 156.421875 13.773438 C 155.175781 13.867188 153.933594 14.347656 152.589844 14.828125 C 151.25 15.304688 149.8125 15.785156 148.183594 16.167969 C 146.265625 16.167969 148.949219 14.730469 143.773438 16.167969 C 142.910156 16.835938 145.5 17.027344 141.089844 18.082031 C 141.089844 18.5625 141.28125 18.464844 141.570312 18.371094 Z M 243.441406 20.859375 C 243.917969 21.050781 244.6875 21.242188 245.546875 21.53125 C 244.496094 21.242188 243.917969 21.050781 243.441406 20.859375 Z M 251.394531 23.0625 C 250.53125 22.679688 250.148438 22.773438 250.339844 23.15625 C 251.683594 23.636719 252.925781 24.210938 253.980469 24.59375 C 252.832031 23.921875 250.914062 23.0625 251.394531 23.0625 Z M 236.539062 14.636719 C 236.539062 14.636719 236.636719 14.636719 236.730469 14.636719 C 237.785156 14.921875 238.550781 15.019531 239.222656 15.210938 C 239.03125 15.019531 238.648438 14.828125 237.210938 14.539062 C 236.921875 14.445312 236.730469 14.539062 236.539062 14.636719 Z M 234.433594 14.539062 C 234.238281 14.539062 234.144531 14.539062 233.855469 14.445312 C 234.144531 14.539062 234.433594 14.730469 234.625 14.828125 C 234.816406 14.828125 235.007812 14.828125 235.199219 14.730469 C 235.007812 14.730469 234.71875 14.636719 234.433594 14.539062 Z M 9.894531 160.664062 L 9.796875 160.855469 C 9.894531 160.664062 9.894531 160.566406 9.988281 160.472656 C 9.988281 160.664062 9.988281 160.566406 9.894531 160.664062 Z M 342.148438 106.273438 L 342.246094 106.175781 L 341.765625 105.507812 Z M 33.085938 117 C 33.183594 117 33.375 116.804688 33.566406 116.519531 C 33.566406 116.519531 33.375 116.710938 33.085938 117 Z M 46.503906 100.335938 C 47.269531 99.667969 47.941406 98.898438 48.707031 98.230469 C 47.652344 99.1875 46.980469 99.859375 46.503906 100.335938 Z M 58.195312 88.941406 C 58.289062 88.75 58.289062 88.65625 58.289062 88.558594 Z M 61.355469 317.605469 C 61.546875 317.703125 61.738281 317.894531 61.835938 317.988281 C 63.082031 318.851562 62.316406 318.277344 61.355469 317.605469 Z M 16.601562 255.558594 C 16.984375 256.324219 17.371094 256.992188 17.753906 257.757812 C 17.273438 256.515625 16.890625 255.460938 16.601562 255.558594 Z M 137.542969 355.71875 C 137.734375 355.8125 137.832031 355.8125 138.023438 355.8125 Z M 19.09375 261.109375 C 18.710938 259.769531 18.136719 258.71875 17.65625 257.757812 C 18.136719 258.8125 18.613281 260.058594 19.09375 261.109375 Z M 117.324219 50.257812 L 118.089844 49.96875 C 118.089844 49.96875 118.089844 49.875 118.089844 49.875 Z M 118.089844 49.777344 L 118.855469 49.394531 C 118.570312 49.488281 118.1875 49.683594 118.089844 49.777344 Z M 120.484375 48.4375 L 118.855469 49.296875 C 119.527344 49.105469 120.199219 48.820312 120.484375 48.4375 Z M 97.871094 59.832031 L 97.773438 60.117188 C 97.871094 60.023438 97.964844 59.925781 97.871094 59.832031 Z M 92.214844 63.277344 C 93.558594 62.511719 95.855469 61.652344 97.675781 60.40625 L 97.773438 60.117188 C 97.101562 60.886719 93.363281 62.128906 92.214844 63.277344 Z M 67.96875 76.875 C 69.503906 75.726562 70.941406 74.675781 72.472656 73.621094 C 71.515625 74.003906 70.363281 74.578125 72.28125 72.949219 C 66.339844 76.683594 73.816406 72.375 67.96875 76.875 Z M 54.648438 87.984375 C 56.757812 85.878906 54.359375 87.792969 54.359375 87.503906 C 53.210938 89.039062 52.921875 89.421875 54.648438 87.984375 Z M 4.046875 199.347656 L 3.472656 199.0625 C 3.570312 201.359375 3.664062 199.0625 4.046875 199.347656 Z M 8.550781 222.902344 C 8.550781 222.136719 8.550781 221.371094 8.648438 220.605469 L 7.976562 219.648438 C 8.167969 220.796875 8.359375 221.851562 8.550781 222.902344 Z M 7.402344 237.554688 L 7.113281 236.597656 L 8.265625 240.332031 Z M 160.449219 365.007812 L 159.777344 364.238281 C 158.246094 364.238281 157.859375 365.007812 160.449219 365.007812 Z M 249.859375 350.929688 C 250.914062 350.835938 253.40625 350.164062 254.652344 349.109375 C 252.832031 349.875 250.820312 350.449219 249.859375 350.929688 Z M 356.234375 126.382812 L 357.003906 128.105469 L 355.660156 124.851562 Z M 356.234375 126.382812 " fill-opacity="1" fill-rule="nonzero"/></g><g fill="#000000" fill-opacity="1"><g transform="translate(42.360299, 244.628362)"><g><path d="M 6.140625 1.8125 C 4.609375 1.644531 3.441406 0.960938 2.640625 -0.234375 C 1.835938 -1.441406 1.519531 -2.769531 1.6875 -4.21875 C 2.082031 -6.707031 2.84375 -8.992188 3.96875 -11.078125 C 5.09375 -13.171875 5.914062 -14.738281 6.4375 -15.78125 C 6.957031 -16.832031 7.5 -18 8.0625 -19.28125 L 12.65625 -29.890625 L 62.203125 -178.296875 L 115.484375 -75.34375 L 167.203125 -178.296875 L 229.046875 0 L 164.3125 0 L 134.40625 -92.109375 L 88.109375 4.34375 L 39.40625 -82.453125 L 22.53125 -29.78125 C 19.882812 -23.90625 18 -18.921875 16.875 -14.828125 C 15.75 -10.734375 14.820312 -7.554688 14.09375 -5.296875 C 12.488281 -0.234375 9.835938 2.132812 6.140625 1.8125 Z M 6.140625 1.8125 "/></g></g></g><g fill="#919191" fill-opacity="1"><g transform="translate(175.638272, 244.628362)"><g><path d="M 51.46875 -21.453125 C 36.769531 -21.453125 26.726562 -21.570312 21.34375 -21.8125 L 17.84375 -13.5 C 16.800781 -11.164062 15.835938 -8.710938 14.953125 -6.140625 C 13.097656 -1.160156 10.523438 1.328125 7.234375 1.328125 C 5.703125 1.328125 4.453125 0.847656 3.484375 -0.109375 C 2.523438 -1.078125 2.046875 -2.085938 2.046875 -3.140625 C 2.046875 -4.898438 2.8125 -6.867188 4.34375 -9.046875 C 6.75 -12.421875 9.117188 -16.835938 11.453125 -22.296875 C 4.535156 -22.941406 1.078125 -24.953125 1.078125 -28.328125 C 1.078125 -31.703125 3.046875 -33.390625 6.984375 -33.390625 C 9.398438 -33.390625 12.21875 -32.988281 15.4375 -32.1875 L 75.59375 -178.296875 L 158.046875 0 L 95.234375 0 L 85.234375 -21.453125 Z M 25.203125 -31.21875 C 32.910156 -30.582031 39.820312 -30.265625 45.9375 -30.265625 L 81.25 -30.265625 L 51.109375 -95.234375 Z M 25.203125 -31.21875 "/></g></g></g><g fill="#000000" fill-opacity="1"><g transform="translate(90.550995, 322.532328)"><g><path d="M 3.1875 -1.90625 C 2.976562 -1.59375 2.84375 -1.253906 2.78125 -0.890625 C 2.71875 -0.535156 2.71875 -0.191406 2.78125 0.140625 C 2.851562 0.484375 2.988281 0.804688 3.1875 1.109375 C 3.382812 1.410156 3.648438 1.664062 3.984375 1.875 C 4.316406 2.09375 4.660156 2.234375 5.015625 2.296875 C 5.367188 2.367188 5.71875 2.367188 6.0625 2.296875 C 6.40625 2.222656 6.726562 2.082031 7.03125 1.875 C 7.332031 1.675781 7.585938 1.421875 7.796875 1.109375 C 8.003906 0.796875 8.140625 0.457031 8.203125 0.09375 C 8.265625 -0.269531 8.257812 -0.625 8.1875 -0.96875 C 8.125 -1.3125 7.992188 -1.628906 7.796875 -1.921875 C 7.597656 -2.222656 7.332031 -2.484375 7 -2.703125 C 6.664062 -2.910156 6.320312 -3.050781 5.96875 -3.125 C 5.613281 -3.195312 5.265625 -3.191406 4.921875 -3.109375 C 4.578125 -3.035156 4.253906 -2.894531 3.953125 -2.6875 C 3.648438 -2.476562 3.394531 -2.21875 3.1875 -1.90625 Z M 2.5625 -2.3125 C 2.820312 -2.707031 3.140625 -3.03125 3.515625 -3.28125 C 3.898438 -3.53125 4.3125 -3.703125 4.75 -3.796875 C 5.1875 -3.898438 5.632812 -3.910156 6.09375 -3.828125 C 6.550781 -3.742188 6.984375 -3.570312 7.390625 -3.3125 C 7.679688 -3.125 7.925781 -2.898438 8.125 -2.640625 C 8.320312 -2.390625 8.476562 -2.128906 8.59375 -1.859375 C 8.71875 -1.585938 8.796875 -1.316406 8.828125 -1.046875 C 8.859375 -0.785156 8.859375 -0.550781 8.828125 -0.34375 C 8.972656 -0.5625 9.117188 -0.769531 9.265625 -0.96875 C 9.421875 -1.175781 9.578125 -1.382812 9.734375 -1.59375 L 10.25 -1.265625 L 6.59375 4.3125 L 6.03125 3.9375 L 6.46875 3.265625 C 6.539062 3.148438 6.609375 3.046875 6.671875 2.953125 C 6.742188 2.867188 6.816406 2.769531 6.890625 2.65625 C 6.722656 2.78125 6.507812 2.878906 6.25 2.953125 C 5.988281 3.035156 5.710938 3.078125 5.421875 3.078125 C 5.140625 3.085938 4.84375 3.039062 4.53125 2.9375 C 4.21875 2.84375 3.90625 2.695312 3.59375 2.5 C 3.1875 2.238281 2.851562 1.910156 2.59375 1.515625 C 2.332031 1.128906 2.15625 0.722656 2.0625 0.296875 C 1.96875 -0.128906 1.957031 -0.566406 2.03125 -1.015625 C 2.113281 -1.472656 2.289062 -1.90625 2.5625 -2.3125 Z M 2.5625 -2.3125 "/></g></g></g><g fill="#000000" fill-opacity="1"><g transform="translate(98.691645, 327.804035)"><g><path d="M 5.671875 1.921875 C 5.703125 2.046875 5.722656 2.164062 5.734375 2.28125 C 5.753906 2.394531 5.773438 2.515625 5.796875 2.640625 C 5.410156 2.679688 5.023438 2.664062 4.640625 2.59375 C 4.253906 2.53125 3.875 2.394531 3.5 2.1875 C 3.082031 1.9375 2.738281 1.628906 2.46875 1.265625 C 2.195312 0.898438 2 0.503906 1.875 0.078125 C 1.757812 -0.347656 1.726562 -0.785156 1.78125 -1.234375 C 1.832031 -1.691406 1.984375 -2.132812 2.234375 -2.5625 C 2.460938 -2.96875 2.765625 -3.3125 3.140625 -3.59375 C 3.515625 -3.875 3.914062 -4.066406 4.34375 -4.171875 C 4.78125 -4.285156 5.222656 -4.316406 5.671875 -4.265625 C 6.128906 -4.210938 6.566406 -4.0625 6.984375 -3.8125 C 7.359375 -3.601562 7.675781 -3.34375 7.9375 -3.03125 C 8.195312 -2.71875 8.394531 -2.390625 8.53125 -2.046875 C 8.40625 -2.003906 8.285156 -1.960938 8.171875 -1.921875 C 8.066406 -1.878906 7.957031 -1.835938 7.84375 -1.796875 C 7.726562 -2.085938 7.570312 -2.347656 7.375 -2.578125 C 7.175781 -2.816406 6.925781 -3.019531 6.625 -3.1875 C 6.28125 -3.382812 5.929688 -3.503906 5.578125 -3.546875 C 5.234375 -3.597656 4.890625 -3.578125 4.546875 -3.484375 C 4.203125 -3.390625 3.882812 -3.226562 3.59375 -3 C 3.3125 -2.78125 3.078125 -2.507812 2.890625 -2.1875 C 2.691406 -1.863281 2.566406 -1.523438 2.515625 -1.171875 C 2.472656 -0.816406 2.492188 -0.46875 2.578125 -0.125 C 2.671875 0.21875 2.820312 0.53125 3.03125 0.8125 C 3.25 1.101562 3.53125 1.347656 3.875 1.546875 C 4.457031 1.878906 5.054688 2.003906 5.671875 1.921875 Z M 5.671875 1.921875 "/></g></g></g><g fill="#000000" fill-opacity="1"><g transform="translate(105.304407, 331.659034)"><g><path d="M 7.71875 -11.046875 L 8.390625 -10.703125 L 4.921875 -3.9375 L 4.5 -3.234375 C 4.96875 -3.640625 5.503906 -3.867188 6.109375 -3.921875 C 6.722656 -3.984375 7.335938 -3.867188 7.953125 -3.578125 C 8.535156 -3.273438 8.910156 -2.875 9.078125 -2.375 C 9.253906 -1.875 9.210938 -1.351562 8.953125 -0.8125 L 6.75 3.46875 L 6.09375 3.125 L 8.203125 -0.984375 C 8.359375 -1.328125 8.382812 -1.679688 8.28125 -2.046875 C 8.1875 -2.421875 7.925781 -2.734375 7.5 -2.984375 C 7.175781 -3.148438 6.835938 -3.253906 6.484375 -3.296875 C 6.128906 -3.335938 5.789062 -3.316406 5.46875 -3.234375 C 5.15625 -3.160156 4.863281 -3.023438 4.59375 -2.828125 C 4.332031 -2.640625 4.117188 -2.382812 3.953125 -2.0625 L 2.296875 1.171875 L 1.625 0.828125 Z M 7.71875 -11.046875 "/></g></g></g><g fill="#000000" fill-opacity="1"><g transform="translate(113.919421, 336.055477)"><g><path d="M 2.828125 -2.40625 C 2.679688 -2.0625 2.601562 -1.707031 2.59375 -1.34375 C 2.59375 -0.976562 2.65625 -0.628906 2.78125 -0.296875 C 2.90625 0.0234375 3.085938 0.316406 3.328125 0.578125 C 3.578125 0.835938 3.882812 1.046875 4.25 1.203125 C 4.613281 1.359375 4.972656 1.441406 5.328125 1.453125 C 5.691406 1.460938 6.035156 1.398438 6.359375 1.265625 C 6.691406 1.140625 6.988281 0.953125 7.25 0.703125 C 7.507812 0.453125 7.710938 0.15625 7.859375 -0.1875 C 8.015625 -0.53125 8.097656 -0.882812 8.109375 -1.25 C 8.117188 -1.613281 8.054688 -1.957031 7.921875 -2.28125 C 7.796875 -2.613281 7.609375 -2.910156 7.359375 -3.171875 C 7.117188 -3.441406 6.816406 -3.65625 6.453125 -3.8125 C 6.085938 -3.96875 5.722656 -4.046875 5.359375 -4.046875 C 5.003906 -4.054688 4.664062 -3.992188 4.34375 -3.859375 C 4.019531 -3.734375 3.722656 -3.546875 3.453125 -3.296875 C 3.191406 -3.046875 2.984375 -2.75 2.828125 -2.40625 Z M 2.140625 -2.703125 C 2.335938 -3.128906 2.601562 -3.5 2.9375 -3.8125 C 3.269531 -4.125 3.644531 -4.363281 4.0625 -4.53125 C 4.476562 -4.695312 4.914062 -4.773438 5.375 -4.765625 C 5.84375 -4.765625 6.300781 -4.664062 6.75 -4.46875 C 7.0625 -4.332031 7.335938 -4.15625 7.578125 -3.9375 C 7.816406 -3.726562 8.019531 -3.5 8.1875 -3.25 C 8.351562 -3 8.472656 -2.742188 8.546875 -2.484375 C 8.617188 -2.222656 8.65625 -1.984375 8.65625 -1.765625 C 8.757812 -2.003906 8.867188 -2.238281 8.984375 -2.46875 C 9.109375 -2.707031 9.222656 -2.941406 9.328125 -3.171875 L 9.890625 -2.9375 L 7.203125 3.171875 L 6.59375 2.90625 L 6.921875 2.171875 C 6.972656 2.046875 7.023438 1.929688 7.078125 1.828125 C 7.128906 1.722656 7.179688 1.609375 7.234375 1.484375 C 7.078125 1.648438 6.878906 1.785156 6.640625 1.890625 C 6.410156 2.003906 6.148438 2.085938 5.859375 2.140625 C 5.578125 2.203125 5.269531 2.207031 4.9375 2.15625 C 4.613281 2.113281 4.285156 2.019531 3.953125 1.875 C 3.503906 1.675781 3.117188 1.40625 2.796875 1.0625 C 2.484375 0.726562 2.242188 0.359375 2.078125 -0.046875 C 1.921875 -0.453125 1.84375 -0.882812 1.84375 -1.34375 C 1.84375 -1.800781 1.941406 -2.253906 2.140625 -2.703125 Z M 2.140625 -2.703125 "/></g></g></g><g fill="#000000" fill-opacity="1"><g transform="translate(122.796497, 339.901684)"><g><path d="M 6.015625 -9.46875 L 6.703125 -9.203125 L 5.140625 -5.140625 L 7.0625 -4.40625 L 6.796875 -3.734375 L 4.875 -4.46875 L 2.75 1.0625 L 2.0625 0.796875 L 4.1875 -4.734375 L 2.734375 -5.296875 L 3 -5.96875 L 4.453125 -5.40625 Z M 6.015625 -9.46875 "/></g></g></g><g fill="#000000" fill-opacity="1"><g transform="translate(128.207785, 341.987157)"><g><path d="M 6.6875 -4.0625 C 6.582031 -4.007812 6.476562 -3.957031 6.375 -3.90625 C 6.269531 -3.851562 6.175781 -3.789062 6.09375 -3.71875 C 6.007812 -3.90625 5.863281 -4.09375 5.65625 -4.28125 C 5.445312 -4.46875 5.21875 -4.601562 4.96875 -4.6875 C 4.832031 -4.738281 4.691406 -4.765625 4.546875 -4.765625 C 4.398438 -4.773438 4.253906 -4.757812 4.109375 -4.71875 C 3.960938 -4.675781 3.835938 -4.597656 3.734375 -4.484375 C 3.628906 -4.378906 3.539062 -4.226562 3.46875 -4.03125 C 3.40625 -3.769531 3.425781 -3.546875 3.53125 -3.359375 C 3.632812 -3.171875 3.785156 -2.988281 3.984375 -2.8125 C 4.179688 -2.644531 4.398438 -2.472656 4.640625 -2.296875 C 4.878906 -2.117188 5.085938 -1.921875 5.265625 -1.703125 C 5.441406 -1.492188 5.566406 -1.257812 5.640625 -1 C 5.722656 -0.738281 5.707031 -0.425781 5.59375 -0.0625 C 5.519531 0.125 5.410156 0.3125 5.265625 0.5 C 5.117188 0.695312 4.929688 0.863281 4.703125 1 C 4.484375 1.144531 4.222656 1.238281 3.921875 1.28125 C 3.617188 1.320312 3.273438 1.273438 2.890625 1.140625 C 2.546875 1.023438 2.207031 0.835938 1.875 0.578125 C 1.539062 0.328125 1.3125 0.0234375 1.1875 -0.328125 C 1.289062 -0.378906 1.382812 -0.429688 1.46875 -0.484375 C 1.5625 -0.546875 1.679688 -0.613281 1.828125 -0.6875 C 1.929688 -0.425781 2.109375 -0.195312 2.359375 0 C 2.617188 0.207031 2.894531 0.363281 3.1875 0.46875 C 3.289062 0.5 3.421875 0.515625 3.578125 0.515625 C 3.734375 0.523438 3.894531 0.503906 4.0625 0.453125 C 4.226562 0.410156 4.378906 0.335938 4.515625 0.234375 C 4.660156 0.128906 4.773438 -0.03125 4.859375 -0.25 C 4.953125 -0.539062 4.953125 -0.789062 4.859375 -1 C 4.773438 -1.207031 4.632812 -1.394531 4.4375 -1.5625 C 4.25 -1.738281 4.03125 -1.910156 3.78125 -2.078125 C 3.53125 -2.253906 3.3125 -2.441406 3.125 -2.640625 C 2.945312 -2.835938 2.8125 -3.0625 2.71875 -3.3125 C 2.632812 -3.570312 2.65625 -3.882812 2.78125 -4.25 C 2.882812 -4.539062 3.023438 -4.773438 3.203125 -4.953125 C 3.390625 -5.140625 3.597656 -5.273438 3.828125 -5.359375 C 4.066406 -5.441406 4.300781 -5.484375 4.53125 -5.484375 C 4.757812 -5.492188 4.976562 -5.460938 5.1875 -5.390625 C 5.414062 -5.316406 5.679688 -5.164062 5.984375 -4.9375 C 6.296875 -4.707031 6.53125 -4.414062 6.6875 -4.0625 Z M 6.6875 -4.0625 "/></g></g></g><g fill="#000000" fill-opacity="1"><g transform="translate(134.780238, 344.198215)"><g><path d="M 2.84375 -0.734375 C 2.40625 -0.222656 1.984375 0.285156 1.578125 0.796875 C 1.171875 1.304688 0.75 1.816406 0.3125 2.328125 L -0.34375 2.140625 C 0.0703125 1.609375 0.46875 1.082031 0.84375 0.5625 C 1.226562 0.0507812 1.628906 -0.460938 2.046875 -0.984375 Z M 2.84375 -0.734375 "/></g></g></g><g fill="#000000" fill-opacity="1"><g transform="translate(138.815951, 345.431515)"><g/></g></g><g fill="#000000" fill-opacity="1"><g transform="translate(144.666944, 347.043477)"><g><path d="M 4.40625 1.375 C 4.070312 0.09375 3.726562 -1.179688 3.375 -2.453125 C 3.03125 -3.734375 2.695312 -5.019531 2.375 -6.3125 L 3.09375 -6.15625 C 3.375 -5.125 3.660156 -4.082031 3.953125 -3.03125 C 4.242188 -1.976562 4.492188 -0.945312 4.703125 0.0625 C 5.328125 -0.769531 5.988281 -1.597656 6.6875 -2.421875 C 7.394531 -3.253906 8.085938 -4.082031 8.765625 -4.90625 L 9.5 -4.734375 C 7.820312 -2.710938 6.125 -0.675781 4.40625 1.375 Z M 4.40625 1.375 "/></g></g></g><g fill="#000000" fill-opacity="1"><g transform="translate(154.107457, 349.089084)"><g><path d="M 5.046875 -5.359375 C 4.691406 -5.410156 4.347656 -5.398438 4.015625 -5.328125 C 3.679688 -5.253906 3.378906 -5.125 3.109375 -4.9375 C 2.835938 -4.757812 2.601562 -4.535156 2.40625 -4.265625 C 2.21875 -4.003906 2.078125 -3.703125 1.984375 -3.359375 C 1.953125 -3.234375 1.925781 -3.097656 1.90625 -2.953125 C 1.894531 -2.816406 1.890625 -2.6875 1.890625 -2.5625 C 2.734375 -2.75 3.570312 -2.929688 4.40625 -3.109375 C 5.238281 -3.285156 6.078125 -3.472656 6.921875 -3.671875 C 6.785156 -4.097656 6.546875 -4.46875 6.203125 -4.78125 C 5.867188 -5.09375 5.484375 -5.285156 5.046875 -5.359375 Z M 7.78125 -3.109375 C 6.8125 -2.898438 5.847656 -2.691406 4.890625 -2.484375 C 3.929688 -2.273438 2.96875 -2.0625 2 -1.84375 C 2.113281 -1.363281 2.363281 -0.945312 2.75 -0.59375 C 3.144531 -0.238281 3.617188 -0.0195312 4.171875 0.0625 C 4.523438 0.125 4.867188 0.113281 5.203125 0.03125 C 5.546875 -0.0390625 5.859375 -0.171875 6.140625 -0.359375 C 6.191406 -0.253906 6.25 -0.148438 6.3125 -0.046875 C 6.375 0.046875 6.4375 0.144531 6.5 0.25 C 6.15625 0.476562 5.773438 0.640625 5.359375 0.734375 C 4.941406 0.835938 4.507812 0.851562 4.0625 0.78125 C 3.570312 0.707031 3.132812 0.546875 2.75 0.296875 C 2.363281 0.046875 2.039062 -0.253906 1.78125 -0.609375 C 1.519531 -0.960938 1.332031 -1.359375 1.21875 -1.796875 C 1.101562 -2.242188 1.082031 -2.707031 1.15625 -3.1875 C 1.226562 -3.65625 1.390625 -4.085938 1.640625 -4.484375 C 1.898438 -4.878906 2.207031 -5.203125 2.5625 -5.453125 C 2.925781 -5.710938 3.328125 -5.894531 3.765625 -6 C 4.210938 -6.113281 4.679688 -6.132812 5.171875 -6.0625 C 5.515625 -6 5.832031 -5.878906 6.125 -5.703125 C 6.425781 -5.535156 6.691406 -5.320312 6.921875 -5.0625 C 7.148438 -4.800781 7.335938 -4.503906 7.484375 -4.171875 C 7.640625 -3.847656 7.738281 -3.492188 7.78125 -3.109375 Z M 7.78125 -3.109375 "/></g></g></g><g fill="#000000" fill-opacity="1"><g transform="translate(162.783303, 350.486004)"><g><path d="M 2.515625 -6.453125 L 3.1875 -6.375 L 3.125 -5.75 C 3.101562 -5.550781 3.082031 -5.367188 3.0625 -5.203125 C 3.039062 -5.035156 3.03125 -4.847656 3.03125 -4.640625 C 3.320312 -5.179688 3.742188 -5.59375 4.296875 -5.875 C 4.859375 -6.164062 5.46875 -6.273438 6.125 -6.203125 C 6.78125 -6.140625 7.273438 -5.898438 7.609375 -5.484375 C 7.941406 -5.078125 8.085938 -4.578125 8.046875 -3.984375 L 7.546875 0.796875 L 6.8125 0.71875 L 7.296875 -3.875 C 7.316406 -4.25 7.210938 -4.59375 6.984375 -4.90625 C 6.765625 -5.21875 6.40625 -5.410156 5.90625 -5.484375 C 5.550781 -5.523438 5.203125 -5.5 4.859375 -5.40625 C 4.515625 -5.320312 4.207031 -5.1875 3.9375 -5 C 3.664062 -4.8125 3.441406 -4.578125 3.265625 -4.296875 C 3.085938 -4.023438 2.976562 -3.710938 2.9375 -3.359375 L 2.5625 0.265625 L 1.8125 0.1875 Z M 2.515625 -6.453125 "/></g></g></g><g fill="#000000" fill-opacity="1"><g transform="translate(172.267303, 351.426654)"><g><path d="M 2.84375 -10.859375 L 3.59375 -10.8125 L 3.34375 -6.46875 L 5.375 -6.34375 L 5.328125 -5.609375 L 3.296875 -5.734375 L 2.953125 0.171875 L 2.203125 0.125 L 2.546875 -5.78125 L 1 -5.875 L 1.046875 -6.609375 L 2.59375 -6.515625 Z M 2.84375 -10.859375 "/></g></g></g><g fill="#000000" fill-opacity="1"><g transform="translate(178.079208, 351.783421)"><g><path d="M 4.21875 -6.03125 C 3.863281 -6.039062 3.519531 -5.984375 3.1875 -5.859375 C 2.863281 -5.742188 2.582031 -5.570312 2.34375 -5.34375 C 2.113281 -5.125 1.921875 -4.867188 1.765625 -4.578125 C 1.609375 -4.285156 1.507812 -3.96875 1.46875 -3.625 C 1.457031 -3.488281 1.453125 -3.347656 1.453125 -3.203125 C 1.460938 -3.066406 1.476562 -2.9375 1.5 -2.8125 C 2.300781 -3.125 3.097656 -3.425781 3.890625 -3.71875 C 4.691406 -4.019531 5.492188 -4.328125 6.296875 -4.640625 C 6.109375 -5.046875 5.828125 -5.378906 5.453125 -5.640625 C 5.078125 -5.898438 4.664062 -6.03125 4.21875 -6.03125 Z M 7.25 -4.21875 C 6.3125 -3.863281 5.382812 -3.507812 4.46875 -3.15625 C 3.550781 -2.8125 2.628906 -2.460938 1.703125 -2.109375 C 1.890625 -1.648438 2.203125 -1.273438 2.640625 -0.984375 C 3.085938 -0.703125 3.585938 -0.554688 4.140625 -0.546875 C 4.503906 -0.546875 4.847656 -0.609375 5.171875 -0.734375 C 5.492188 -0.859375 5.773438 -1.035156 6.015625 -1.265625 C 6.085938 -1.160156 6.160156 -1.0625 6.234375 -0.96875 C 6.304688 -0.882812 6.382812 -0.796875 6.46875 -0.703125 C 6.15625 -0.429688 5.800781 -0.210938 5.40625 -0.046875 C 5.007812 0.109375 4.582031 0.1875 4.125 0.1875 C 3.632812 0.175781 3.179688 0.078125 2.765625 -0.109375 C 2.347656 -0.296875 1.984375 -0.546875 1.671875 -0.859375 C 1.359375 -1.171875 1.113281 -1.535156 0.9375 -1.953125 C 0.757812 -2.378906 0.675781 -2.835938 0.6875 -3.328125 C 0.695312 -3.796875 0.796875 -4.242188 0.984375 -4.671875 C 1.171875 -5.097656 1.425781 -5.460938 1.75 -5.765625 C 2.070312 -6.078125 2.441406 -6.320312 2.859375 -6.5 C 3.273438 -6.675781 3.726562 -6.757812 4.21875 -6.75 C 4.570312 -6.75 4.910156 -6.679688 5.234375 -6.546875 C 5.554688 -6.421875 5.847656 -6.242188 6.109375 -6.015625 C 6.367188 -5.796875 6.597656 -5.535156 6.796875 -5.234375 C 6.992188 -4.929688 7.144531 -4.59375 7.25 -4.21875 Z M 7.25 -4.21875 "/></g></g></g><g fill="#000000" fill-opacity="1"><g transform="translate(186.832134, 351.869678)"><g><path d="M 4.796875 -6.1875 C 4.722656 -6.09375 4.648438 -6 4.578125 -5.90625 C 4.503906 -5.820312 4.4375 -5.734375 4.375 -5.640625 C 4.238281 -5.785156 4.035156 -5.910156 3.765625 -6.015625 C 3.503906 -6.117188 3.242188 -6.164062 2.984375 -6.15625 C 2.835938 -6.144531 2.691406 -6.113281 2.546875 -6.0625 C 2.410156 -6.019531 2.285156 -5.953125 2.171875 -5.859375 C 2.054688 -5.773438 1.96875 -5.660156 1.90625 -5.515625 C 1.84375 -5.378906 1.8125 -5.207031 1.8125 -5 C 1.84375 -4.738281 1.941406 -4.535156 2.109375 -4.390625 C 2.273438 -4.253906 2.476562 -4.140625 2.71875 -4.046875 C 2.96875 -3.960938 3.234375 -3.878906 3.515625 -3.796875 C 3.804688 -3.710938 4.070312 -3.601562 4.3125 -3.46875 C 4.550781 -3.332031 4.753906 -3.15625 4.921875 -2.9375 C 5.097656 -2.71875 5.191406 -2.414062 5.203125 -2.03125 C 5.210938 -1.832031 5.179688 -1.617188 5.109375 -1.390625 C 5.035156 -1.160156 4.914062 -0.941406 4.75 -0.734375 C 4.59375 -0.523438 4.378906 -0.347656 4.109375 -0.203125 C 3.847656 -0.0546875 3.515625 0.0195312 3.109375 0.03125 C 2.742188 0.0390625 2.359375 -0.0078125 1.953125 -0.125 C 1.554688 -0.238281 1.238281 -0.4375 1 -0.71875 C 1.070312 -0.8125 1.140625 -0.898438 1.203125 -0.984375 C 1.273438 -1.078125 1.359375 -1.175781 1.453125 -1.28125 C 1.648438 -1.082031 1.90625 -0.929688 2.21875 -0.828125 C 2.53125 -0.734375 2.84375 -0.691406 3.15625 -0.703125 C 3.257812 -0.703125 3.382812 -0.722656 3.53125 -0.765625 C 3.675781 -0.816406 3.820312 -0.894531 3.96875 -1 C 4.113281 -1.101562 4.234375 -1.234375 4.328125 -1.390625 C 4.421875 -1.546875 4.460938 -1.738281 4.453125 -1.96875 C 4.441406 -2.28125 4.351562 -2.515625 4.1875 -2.671875 C 4.03125 -2.835938 3.828125 -2.960938 3.578125 -3.046875 C 3.335938 -3.140625 3.070312 -3.21875 2.78125 -3.28125 C 2.5 -3.351562 2.234375 -3.453125 1.984375 -3.578125 C 1.742188 -3.703125 1.535156 -3.867188 1.359375 -4.078125 C 1.191406 -4.285156 1.097656 -4.582031 1.078125 -4.96875 C 1.066406 -5.28125 1.113281 -5.550781 1.21875 -5.78125 C 1.332031 -6.007812 1.484375 -6.207031 1.671875 -6.375 C 1.859375 -6.539062 2.0625 -6.664062 2.28125 -6.75 C 2.5 -6.832031 2.71875 -6.878906 2.9375 -6.890625 C 3.175781 -6.898438 3.476562 -6.851562 3.84375 -6.75 C 4.21875 -6.644531 4.535156 -6.457031 4.796875 -6.1875 Z M 4.796875 -6.1875 "/></g></g></g><g fill="#000000" fill-opacity="1"><g transform="translate(193.78528, 351.6133)"><g/></g></g><g fill="#000000" fill-opacity="1"><g transform="translate(199.892779, 351.248643)"><g><path d="M 2.15625 -3.640625 C 2.207031 -3.253906 2.320312 -2.910156 2.5 -2.609375 C 2.6875 -2.304688 2.914062 -2.046875 3.1875 -1.828125 C 3.457031 -1.609375 3.769531 -1.453125 4.125 -1.359375 C 4.476562 -1.265625 4.851562 -1.242188 5.25 -1.296875 C 5.769531 -1.367188 6.210938 -1.546875 6.578125 -1.828125 C 6.953125 -2.117188 7.234375 -2.476562 7.421875 -2.90625 C 6.898438 -3.539062 6.382812 -4.171875 5.875 -4.796875 C 5.363281 -5.421875 4.851562 -6.054688 4.34375 -6.703125 C 3.976562 -6.617188 3.648438 -6.476562 3.359375 -6.28125 C 3.078125 -6.09375 2.832031 -5.863281 2.625 -5.59375 C 2.425781 -5.332031 2.285156 -5.03125 2.203125 -4.6875 C 2.117188 -4.351562 2.101562 -4.003906 2.15625 -3.640625 Z M 8.265625 -5.171875 L 8.359375 -4.46875 C 8.421875 -3.988281 8.367188 -3.507812 8.203125 -3.03125 C 8.453125 -2.738281 8.6875 -2.453125 8.90625 -2.171875 C 9.132812 -1.890625 9.367188 -1.601562 9.609375 -1.3125 C 9.515625 -1.25 9.425781 -1.175781 9.34375 -1.09375 C 9.257812 -1.007812 9.175781 -0.929688 9.09375 -0.859375 C 8.894531 -1.097656 8.695312 -1.335938 8.5 -1.578125 C 8.3125 -1.816406 8.117188 -2.046875 7.921875 -2.265625 C 7.671875 -1.828125 7.316406 -1.453125 6.859375 -1.140625 C 6.410156 -0.828125 5.90625 -0.632812 5.34375 -0.5625 C 4.851562 -0.5 4.390625 -0.53125 3.953125 -0.65625 C 3.515625 -0.78125 3.117188 -0.972656 2.765625 -1.234375 C 2.421875 -1.492188 2.128906 -1.820312 1.890625 -2.21875 C 1.648438 -2.625 1.5 -3.066406 1.4375 -3.546875 C 1.382812 -3.972656 1.398438 -4.382812 1.484375 -4.78125 C 1.578125 -5.175781 1.726562 -5.539062 1.9375 -5.875 C 2.15625 -6.21875 2.425781 -6.507812 2.75 -6.75 C 3.070312 -6.988281 3.429688 -7.171875 3.828125 -7.296875 C 3.585938 -7.609375 3.335938 -7.921875 3.078125 -8.234375 C 2.816406 -8.554688 2.5625 -8.875 2.3125 -9.1875 C 2.050781 -9.53125 1.851562 -9.878906 1.71875 -10.234375 C 1.582031 -10.597656 1.519531 -10.96875 1.53125 -11.34375 C 1.539062 -11.71875 1.628906 -12.070312 1.796875 -12.40625 C 1.960938 -12.75 2.226562 -13.066406 2.59375 -13.359375 C 2.882812 -13.609375 3.203125 -13.773438 3.546875 -13.859375 C 3.898438 -13.953125 4.238281 -13.988281 4.5625 -13.96875 C 4.894531 -13.957031 5.21875 -13.90625 5.53125 -13.8125 C 5.84375 -13.71875 6.117188 -13.613281 6.359375 -13.5 C 6.316406 -13.382812 6.28125 -13.273438 6.25 -13.171875 C 6.21875 -13.066406 6.175781 -12.960938 6.125 -12.859375 C 5.90625 -12.953125 5.664062 -13.035156 5.40625 -13.109375 C 5.144531 -13.191406 4.882812 -13.242188 4.625 -13.265625 C 4.375 -13.285156 4.117188 -13.265625 3.859375 -13.203125 C 3.597656 -13.140625 3.351562 -13.019531 3.125 -12.84375 C 2.550781 -12.351562 2.269531 -11.800781 2.28125 -11.1875 C 2.289062 -10.582031 2.507812 -10.019531 2.9375 -9.5 C 3.695312 -8.582031 4.441406 -7.660156 5.171875 -6.734375 C 5.910156 -5.816406 6.660156 -4.898438 7.421875 -3.984375 C 7.472656 -4.210938 7.507812 -4.441406 7.53125 -4.671875 C 7.550781 -4.898438 7.5625 -5.132812 7.5625 -5.375 L 7.453125 -6.09375 C 7.429688 -6.519531 7.460938 -6.847656 7.546875 -7.078125 C 7.640625 -7.304688 7.753906 -7.476562 7.890625 -7.59375 C 8.035156 -7.71875 8.207031 -7.796875 8.40625 -7.828125 C 8.613281 -7.859375 8.820312 -7.890625 9.03125 -7.921875 L 9.75 -8.015625 L 9.84375 -7.296875 L 8.9375 -7.171875 C 8.570312 -7.128906 8.34375 -6.960938 8.25 -6.671875 C 8.164062 -6.390625 8.171875 -5.890625 8.265625 -5.171875 Z M 8.265625 -5.171875 "/></g></g></g><g fill="#000000" fill-opacity="1"><g transform="translate(212.986506, 349.384629)"><g/></g></g><g fill="#000000" fill-opacity="1"><g transform="translate(218.868103, 348.225108)"><g><path d="M 2.015625 -0.453125 L 1.296875 -0.296875 L -1.625 -13.3125 L -0.90625 -13.46875 Z M 2.015625 -0.453125 "/></g></g></g><g fill="#000000" fill-opacity="1"><g transform="translate(222.804501, 347.379213)"><g><path d="M -0.234375 -3.40625 C -0.359375 -3.851562 -0.390625 -4.304688 -0.328125 -4.765625 C -0.265625 -5.222656 -0.125 -5.644531 0.09375 -6.03125 C 0.320312 -6.414062 0.613281 -6.75 0.96875 -7.03125 C 1.332031 -7.320312 1.75 -7.53125 2.21875 -7.65625 C 2.6875 -7.78125 3.148438 -7.804688 3.609375 -7.734375 C 4.078125 -7.671875 4.503906 -7.523438 4.890625 -7.296875 C 5.285156 -7.078125 5.625 -6.785156 5.90625 -6.421875 C 6.1875 -6.054688 6.390625 -5.648438 6.515625 -5.203125 C 6.640625 -4.722656 6.671875 -4.253906 6.609375 -3.796875 C 6.546875 -3.347656 6.398438 -2.929688 6.171875 -2.546875 C 5.941406 -2.171875 5.640625 -1.835938 5.265625 -1.546875 C 4.898438 -1.265625 4.484375 -1.0625 4.015625 -0.9375 C 3.546875 -0.8125 3.082031 -0.78125 2.625 -0.84375 C 2.175781 -0.914062 1.757812 -1.0625 1.375 -1.28125 C 0.988281 -1.5 0.65625 -1.785156 0.375 -2.140625 C 0.09375 -2.503906 -0.109375 -2.925781 -0.234375 -3.40625 Z M 0.484375 -3.59375 C 0.578125 -3.226562 0.734375 -2.898438 0.953125 -2.609375 C 1.179688 -2.328125 1.445312 -2.097656 1.75 -1.921875 C 2.050781 -1.742188 2.378906 -1.628906 2.734375 -1.578125 C 3.097656 -1.535156 3.460938 -1.5625 3.828125 -1.65625 C 4.191406 -1.75 4.515625 -1.90625 4.796875 -2.125 C 5.085938 -2.351562 5.320312 -2.617188 5.5 -2.921875 C 5.675781 -3.222656 5.789062 -3.550781 5.84375 -3.90625 C 5.894531 -4.269531 5.875 -4.632812 5.78125 -5 C 5.6875 -5.363281 5.523438 -5.6875 5.296875 -5.96875 C 5.066406 -6.25 4.800781 -6.476562 4.5 -6.65625 C 4.195312 -6.84375 3.863281 -6.960938 3.5 -7.015625 C 3.144531 -7.066406 2.785156 -7.046875 2.421875 -6.953125 C 2.054688 -6.859375 1.726562 -6.695312 1.4375 -6.46875 C 1.15625 -6.238281 0.925781 -5.96875 0.75 -5.65625 C 0.570312 -5.351562 0.457031 -5.023438 0.40625 -4.671875 C 0.363281 -4.316406 0.390625 -3.957031 0.484375 -3.59375 Z M 0.484375 -3.59375 "/></g></g></g><g fill="#000000" fill-opacity="1"><g transform="translate(231.608657, 344.990984)"><g><path d="M 5.234375 -2.921875 C 5.335938 -2.867188 5.4375 -2.8125 5.53125 -2.75 C 5.632812 -2.6875 5.726562 -2.617188 5.8125 -2.546875 C 5.601562 -2.222656 5.34375 -1.9375 5.03125 -1.6875 C 4.71875 -1.445312 4.359375 -1.265625 3.953125 -1.140625 C 3.492188 -0.992188 3.035156 -0.941406 2.578125 -0.984375 C 2.128906 -1.035156 1.707031 -1.15625 1.3125 -1.34375 C 0.914062 -1.539062 0.566406 -1.8125 0.265625 -2.15625 C -0.0351562 -2.507812 -0.265625 -2.921875 -0.421875 -3.390625 C -0.554688 -3.835938 -0.601562 -4.289062 -0.5625 -4.75 C -0.53125 -5.207031 -0.410156 -5.632812 -0.203125 -6.03125 C 0.00390625 -6.425781 0.28125 -6.773438 0.625 -7.078125 C 0.96875 -7.378906 1.367188 -7.601562 1.828125 -7.75 C 2.234375 -7.875 2.640625 -7.929688 3.046875 -7.921875 C 3.453125 -7.910156 3.828125 -7.832031 4.171875 -7.6875 C 4.128906 -7.582031 4.085938 -7.476562 4.046875 -7.375 C 4.003906 -7.269531 3.957031 -7.15625 3.90625 -7.03125 C 3.625 -7.132812 3.328125 -7.191406 3.015625 -7.203125 C 2.703125 -7.210938 2.378906 -7.164062 2.046875 -7.0625 C 1.671875 -6.9375 1.347656 -6.757812 1.078125 -6.53125 C 0.816406 -6.300781 0.601562 -6.03125 0.4375 -5.71875 C 0.28125 -5.40625 0.1875 -5.0625 0.15625 -4.6875 C 0.132812 -4.320312 0.179688 -3.960938 0.296875 -3.609375 C 0.410156 -3.242188 0.582031 -2.925781 0.8125 -2.65625 C 1.050781 -2.394531 1.328125 -2.179688 1.640625 -2.015625 C 1.953125 -1.847656 2.285156 -1.742188 2.640625 -1.703125 C 2.992188 -1.671875 3.359375 -1.71875 3.734375 -1.84375 C 4.378906 -2.050781 4.878906 -2.410156 5.234375 -2.921875 Z M 5.234375 -2.921875 "/></g></g></g><g fill="#000000" fill-opacity="1"><g transform="translate(238.897069, 342.651254)"><g><path d="M 0.328125 -3.703125 C 0.460938 -3.347656 0.648438 -3.039062 0.890625 -2.78125 C 1.140625 -2.53125 1.421875 -2.328125 1.734375 -2.171875 C 2.054688 -2.023438 2.398438 -1.941406 2.765625 -1.921875 C 3.128906 -1.910156 3.5 -1.976562 3.875 -2.125 C 4.238281 -2.257812 4.546875 -2.453125 4.796875 -2.703125 C 5.054688 -2.960938 5.257812 -3.253906 5.40625 -3.578125 C 5.550781 -3.898438 5.628906 -4.238281 5.640625 -4.59375 C 5.660156 -4.945312 5.601562 -5.300781 5.46875 -5.65625 C 5.332031 -6.007812 5.140625 -6.316406 4.890625 -6.578125 C 4.640625 -6.847656 4.351562 -7.054688 4.03125 -7.203125 C 3.707031 -7.347656 3.363281 -7.425781 3 -7.4375 C 2.644531 -7.445312 2.285156 -7.382812 1.921875 -7.25 C 1.546875 -7.101562 1.226562 -6.90625 0.96875 -6.65625 C 0.707031 -6.40625 0.503906 -6.117188 0.359375 -5.796875 C 0.222656 -5.484375 0.148438 -5.144531 0.140625 -4.78125 C 0.128906 -4.414062 0.191406 -4.054688 0.328125 -3.703125 Z M -0.375 -3.4375 C -0.539062 -3.875 -0.613281 -4.320312 -0.59375 -4.78125 C -0.570312 -5.238281 -0.472656 -5.671875 -0.296875 -6.078125 C -0.117188 -6.492188 0.132812 -6.859375 0.46875 -7.171875 C 0.8125 -7.492188 1.210938 -7.742188 1.671875 -7.921875 C 1.984375 -8.046875 2.300781 -8.117188 2.625 -8.140625 C 2.945312 -8.160156 3.25 -8.140625 3.53125 -8.078125 C 3.820312 -8.015625 4.085938 -7.910156 4.328125 -7.765625 C 4.566406 -7.628906 4.765625 -7.488281 4.921875 -7.34375 C 4.828125 -7.582031 4.738281 -7.828125 4.65625 -8.078125 C 4.582031 -8.328125 4.5 -8.578125 4.40625 -8.828125 L 4.984375 -9.046875 L 7.359375 -2.8125 L 6.734375 -2.5625 L 6.453125 -3.3125 C 6.398438 -3.4375 6.351562 -3.550781 6.3125 -3.65625 C 6.28125 -3.769531 6.242188 -3.894531 6.203125 -4.03125 C 6.203125 -3.8125 6.15625 -3.570312 6.0625 -3.3125 C 5.96875 -3.0625 5.835938 -2.816406 5.671875 -2.578125 C 5.503906 -2.347656 5.289062 -2.132812 5.03125 -1.9375 C 4.769531 -1.738281 4.472656 -1.578125 4.140625 -1.453125 C 3.679688 -1.273438 3.21875 -1.191406 2.75 -1.203125 C 2.28125 -1.222656 1.84375 -1.316406 1.4375 -1.484375 C 1.039062 -1.660156 0.679688 -1.914062 0.359375 -2.25 C 0.046875 -2.582031 -0.195312 -2.976562 -0.375 -3.4375 Z M -0.375 -3.4375 "/></g></g></g><g fill="#000000" fill-opacity="1"><g transform="translate(247.914663, 339.147056)"><g><path d="M -2.375 -10.953125 L -1.6875 -11.265625 L 0.046875 -7.28125 L 1.921875 -8.09375 L 2.203125 -7.421875 L 0.328125 -6.609375 L 2.703125 -1.1875 L 2.015625 -0.875 L -0.359375 -6.296875 L -1.78125 -5.6875 L -2.0625 -6.359375 L -0.640625 -6.96875 Z M -2.375 -10.953125 "/></g></g></g><g fill="#000000" fill-opacity="1"><g transform="translate(253.185789, 336.82357)"><g><path d="M -2.84375 -8.65625 C -2.914062 -8.800781 -2.921875 -8.945312 -2.859375 -9.09375 C -2.804688 -9.25 -2.707031 -9.363281 -2.5625 -9.4375 C -2.425781 -9.5 -2.28125 -9.503906 -2.125 -9.453125 C -1.96875 -9.398438 -1.851562 -9.300781 -1.78125 -9.15625 C -1.707031 -9 -1.703125 -8.84375 -1.765625 -8.6875 C -1.828125 -8.539062 -1.925781 -8.4375 -2.0625 -8.375 C -2.207031 -8.300781 -2.351562 -8.289062 -2.5 -8.34375 C -2.65625 -8.394531 -2.769531 -8.5 -2.84375 -8.65625 Z M 1.859375 -0.875 L 1.203125 -0.5625 L -1.640625 -6.59375 L -0.984375 -6.90625 Z M 1.859375 -0.875 "/></g></g></g><g fill="#000000" fill-opacity="1"><g transform="translate(256.842558, 335.138929)"><g><path d="M -0.984375 -3.265625 C -1.203125 -3.679688 -1.328125 -4.117188 -1.359375 -4.578125 C -1.398438 -5.035156 -1.351562 -5.476562 -1.21875 -5.90625 C -1.082031 -6.332031 -0.867188 -6.722656 -0.578125 -7.078125 C -0.296875 -7.429688 0.0625 -7.722656 0.5 -7.953125 C 0.9375 -8.179688 1.382812 -8.3125 1.84375 -8.34375 C 2.300781 -8.382812 2.742188 -8.335938 3.171875 -8.203125 C 3.609375 -8.066406 4.003906 -7.851562 4.359375 -7.5625 C 4.722656 -7.269531 5.015625 -6.914062 5.234375 -6.5 C 5.460938 -6.0625 5.59375 -5.613281 5.625 -5.15625 C 5.65625 -4.695312 5.597656 -4.257812 5.453125 -3.84375 C 5.316406 -3.425781 5.101562 -3.035156 4.8125 -2.671875 C 4.519531 -2.316406 4.15625 -2.023438 3.71875 -1.796875 C 3.28125 -1.566406 2.832031 -1.4375 2.375 -1.40625 C 1.925781 -1.375 1.488281 -1.421875 1.0625 -1.546875 C 0.632812 -1.671875 0.242188 -1.878906 -0.109375 -2.171875 C -0.460938 -2.460938 -0.753906 -2.828125 -0.984375 -3.265625 Z M -0.3125 -3.609375 C -0.132812 -3.273438 0.0859375 -2.992188 0.359375 -2.765625 C 0.640625 -2.535156 0.945312 -2.367188 1.28125 -2.265625 C 1.613281 -2.160156 1.960938 -2.117188 2.328125 -2.140625 C 2.691406 -2.171875 3.039062 -2.273438 3.375 -2.453125 C 3.707031 -2.628906 3.988281 -2.851562 4.21875 -3.125 C 4.445312 -3.40625 4.613281 -3.710938 4.71875 -4.046875 C 4.820312 -4.390625 4.863281 -4.738281 4.84375 -5.09375 C 4.820312 -5.457031 4.722656 -5.804688 4.546875 -6.140625 C 4.367188 -6.472656 4.140625 -6.753906 3.859375 -6.984375 C 3.578125 -7.210938 3.269531 -7.378906 2.9375 -7.484375 C 2.601562 -7.585938 2.253906 -7.628906 1.890625 -7.609375 C 1.523438 -7.585938 1.175781 -7.488281 0.84375 -7.3125 C 0.507812 -7.132812 0.226562 -6.90625 0 -6.625 C -0.226562 -6.34375 -0.394531 -6.03125 -0.5 -5.6875 C -0.601562 -5.351562 -0.640625 -5.003906 -0.609375 -4.640625 C -0.585938 -4.285156 -0.488281 -3.941406 -0.3125 -3.609375 Z M -0.3125 -3.609375 "/></g></g></g><g fill="#000000" fill-opacity="1"><g transform="translate(264.946198, 330.894201)"><g><path d="M -1.859375 -6.671875 L -1.28125 -7.015625 L -0.953125 -6.46875 C -0.847656 -6.300781 -0.753906 -6.144531 -0.671875 -6 C -0.585938 -5.863281 -0.484375 -5.707031 -0.359375 -5.53125 C -0.441406 -6.132812 -0.34375 -6.71875 -0.0625 -7.28125 C 0.207031 -7.84375 0.625 -8.289062 1.1875 -8.625 C 1.75 -8.957031 2.285156 -9.066406 2.796875 -8.953125 C 3.316406 -8.835938 3.734375 -8.53125 4.046875 -8.03125 L 6.515625 -3.890625 L 5.875 -3.5 L 3.5 -7.46875 C 3.289062 -7.78125 3.003906 -7.992188 2.640625 -8.109375 C 2.273438 -8.222656 1.875 -8.164062 1.4375 -7.9375 C 1.132812 -7.75 0.867188 -7.515625 0.640625 -7.234375 C 0.421875 -6.960938 0.257812 -6.671875 0.15625 -6.359375 C 0.0507812 -6.046875 0.0078125 -5.722656 0.03125 -5.390625 C 0.0625 -5.054688 0.171875 -4.738281 0.359375 -4.4375 L 2.21875 -1.3125 L 1.5625 -0.9375 Z M -1.859375 -6.671875 "/></g></g></g><g fill="#000000" fill-opacity="1"><g transform="translate(273.119386, 325.961979)"><g><path d="M 0.8125 -7.765625 C 0.800781 -7.660156 0.785156 -7.550781 0.765625 -7.4375 C 0.753906 -7.320312 0.75 -7.207031 0.75 -7.09375 C 0.550781 -7.15625 0.3125 -7.15625 0.03125 -7.09375 C -0.238281 -7.039062 -0.484375 -6.941406 -0.703125 -6.796875 C -0.828125 -6.710938 -0.929688 -6.613281 -1.015625 -6.5 C -1.109375 -6.382812 -1.179688 -6.257812 -1.234375 -6.125 C -1.296875 -5.988281 -1.3125 -5.84375 -1.28125 -5.6875 C -1.257812 -5.539062 -1.191406 -5.378906 -1.078125 -5.203125 C -0.921875 -5.003906 -0.734375 -4.890625 -0.515625 -4.859375 C -0.304688 -4.828125 -0.078125 -4.832031 0.171875 -4.875 C 0.429688 -4.925781 0.707031 -4.992188 1 -5.078125 C 1.289062 -5.160156 1.570312 -5.207031 1.84375 -5.21875 C 2.125 -5.238281 2.390625 -5.195312 2.640625 -5.09375 C 2.890625 -5 3.125 -4.789062 3.34375 -4.46875 C 3.457031 -4.300781 3.546875 -4.101562 3.609375 -3.875 C 3.671875 -3.644531 3.6875 -3.394531 3.65625 -3.125 C 3.632812 -2.863281 3.546875 -2.601562 3.390625 -2.34375 C 3.242188 -2.082031 3.003906 -1.835938 2.671875 -1.609375 C 2.359375 -1.410156 2 -1.253906 1.59375 -1.140625 C 1.195312 -1.023438 0.820312 -1.023438 0.46875 -1.140625 C 0.488281 -1.253906 0.503906 -1.363281 0.515625 -1.46875 C 0.523438 -1.582031 0.539062 -1.710938 0.5625 -1.859375 C 0.832031 -1.785156 1.125 -1.789062 1.4375 -1.875 C 1.757812 -1.957031 2.050781 -2.085938 2.3125 -2.265625 C 2.394531 -2.316406 2.484375 -2.398438 2.578125 -2.515625 C 2.679688 -2.628906 2.769531 -2.769531 2.84375 -2.9375 C 2.914062 -3.101562 2.945312 -3.273438 2.9375 -3.453125 C 2.9375 -3.628906 2.875 -3.816406 2.75 -4.015625 C 2.570312 -4.265625 2.375 -4.414062 2.15625 -4.46875 C 1.9375 -4.53125 1.695312 -4.535156 1.4375 -4.484375 C 1.1875 -4.429688 0.914062 -4.359375 0.625 -4.265625 C 0.34375 -4.171875 0.0703125 -4.109375 -0.1875 -4.078125 C -0.457031 -4.054688 -0.71875 -4.085938 -0.96875 -4.171875 C -1.226562 -4.253906 -1.46875 -4.457031 -1.6875 -4.78125 C -1.851562 -5.039062 -1.953125 -5.300781 -1.984375 -5.5625 C -2.023438 -5.820312 -2.003906 -6.066406 -1.921875 -6.296875 C -1.847656 -6.535156 -1.742188 -6.75 -1.609375 -6.9375 C -1.472656 -7.125 -1.3125 -7.28125 -1.125 -7.40625 C -0.925781 -7.53125 -0.640625 -7.644531 -0.265625 -7.75 C 0.0976562 -7.863281 0.457031 -7.867188 0.8125 -7.765625 Z M 0.8125 -7.765625 "/></g></g></g><g fill="#000000" fill-opacity="1"><g transform="translate(86.913169, 270.819042)"><g><path d="M 1.9375 -14.234375 C 3.132812 -12.691406 4.320312 -11.148438 5.5 -9.609375 C 6.675781 -8.078125 7.863281 -6.539062 9.0625 -5 C 10.25 -6.539062 11.429688 -8.078125 12.609375 -9.609375 C 13.796875 -11.148438 14.984375 -12.691406 16.171875 -14.234375 L 16.171875 0 L 15.359375 0 L 15.359375 -11.171875 C 15.367188 -11.304688 15.375 -11.429688 15.375 -11.546875 C 15.382812 -11.671875 15.390625 -11.804688 15.390625 -11.953125 C 14.367188 -10.523438 13.320312 -9.128906 12.25 -7.765625 C 11.1875 -6.398438 10.125 -5.023438 9.0625 -3.640625 C 8.164062 -4.804688 7.28125 -5.953125 6.40625 -7.078125 C 5.539062 -8.210938 4.660156 -9.363281 3.765625 -10.53125 L 2.953125 -11.578125 C 2.910156 -11.648438 2.867188 -11.710938 2.828125 -11.765625 C 2.796875 -11.828125 2.757812 -11.890625 2.71875 -11.953125 C 2.71875 -11.804688 2.71875 -11.671875 2.71875 -11.546875 C 2.726562 -11.429688 2.742188 -11.304688 2.765625 -11.171875 L 2.765625 0 L 1.9375 0 Z M 1.9375 -14.234375 "/></g></g></g><g fill="#000000" fill-opacity="1"><g transform="translate(105.713938, 270.819042)"><g><path d="M 2.015625 -13.609375 L 2.8125 -13.609375 L 2.8125 0 L 2.015625 0 Z M 2.015625 -13.609375 "/></g></g></g><g fill="#000000" fill-opacity="1"><g transform="translate(111.119007, 270.819042)"><g><path d="M 1.65625 0 L 1.65625 -13.609375 L 2.453125 -13.609375 L 2.453125 -0.78125 L 9.984375 -0.78125 L 9.984375 0 Z M 1.65625 0 "/></g></g></g><g fill="#000000" fill-opacity="1"><g transform="translate(123.231636, 270.819042)"><g><path d="M 1.65625 0 L 1.65625 -13.609375 L 2.453125 -13.609375 L 2.453125 -0.78125 L 9.984375 -0.78125 L 9.984375 0 Z M 1.65625 0 "/></g></g></g><g fill="#000000" fill-opacity="1"><g transform="translate(135.344265, 270.819042)"><g><path d="M 1.65625 0 L 1.65625 -13.609375 L 9.71875 -13.609375 L 9.71875 -12.828125 L 2.453125 -12.828125 L 2.453125 -7.25 L 8.953125 -7.25 L 8.953125 -6.46875 L 2.453125 -6.46875 L 2.453125 -0.78125 L 9.984375 -0.78125 L 9.984375 0 Z M 5.265625 -14.578125 C 5.566406 -15.003906 5.859375 -15.429688 6.140625 -15.859375 C 6.429688 -16.296875 6.722656 -16.726562 7.015625 -17.15625 L 7.859375 -17.15625 C 7.535156 -16.726562 7.210938 -16.296875 6.890625 -15.859375 C 6.566406 -15.429688 6.238281 -15.003906 5.90625 -14.578125 Z M 5.265625 -14.578125 "/></g></g></g><g fill="#000000" fill-opacity="1"><g transform="translate(147.612444, 270.819042)"><g><path d="M 13.8125 -13.609375 L 13.8125 0.625 C 12 -1.457031 10.203125 -3.523438 8.421875 -5.578125 C 6.648438 -7.640625 4.867188 -9.710938 3.078125 -11.796875 C 3.003906 -11.890625 2.9375 -11.972656 2.875 -12.046875 C 2.820312 -12.128906 2.765625 -12.210938 2.703125 -12.296875 C 2.710938 -12.203125 2.71875 -12.101562 2.71875 -12 C 2.726562 -11.894531 2.742188 -11.789062 2.765625 -11.6875 L 2.765625 0 L 1.9375 0 L 1.9375 -14.234375 C 3.757812 -12.117188 5.554688 -10.023438 7.328125 -7.953125 C 9.097656 -5.890625 10.882812 -3.804688 12.6875 -1.703125 C 12.757812 -1.617188 12.820312 -1.535156 12.875 -1.453125 C 12.9375 -1.378906 13 -1.296875 13.0625 -1.203125 C 13.050781 -1.304688 13.039062 -1.410156 13.03125 -1.515625 C 13.019531 -1.617188 13.007812 -1.722656 13 -1.828125 L 13 -13.609375 Z M 13.8125 -13.609375 "/></g></g></g><g fill="#000000" fill-opacity="1"><g transform="translate(164.002363, 270.819042)"><g><path d="M 2.015625 -13.609375 L 2.8125 -13.609375 L 2.8125 0 L 2.015625 0 Z M 2.015625 -13.609375 "/></g></g></g><g fill="#000000" fill-opacity="1"><g transform="translate(169.407435, 270.819042)"><g><path d="M 6.359375 0.15625 C 5.691406 0.15625 5.078125 0.0625 4.515625 -0.125 C 3.960938 -0.320312 3.484375 -0.613281 3.078125 -1 C 2.671875 -1.382812 2.351562 -1.859375 2.125 -2.421875 C 1.894531 -2.992188 1.78125 -3.648438 1.78125 -4.390625 L 1.78125 -13.609375 L 2.578125 -13.609375 L 2.578125 -4.453125 C 2.578125 -3.828125 2.671875 -3.273438 2.859375 -2.796875 C 3.054688 -2.328125 3.316406 -1.929688 3.640625 -1.609375 C 3.972656 -1.285156 4.375 -1.039062 4.84375 -0.875 C 5.3125 -0.707031 5.816406 -0.625 6.359375 -0.625 C 6.898438 -0.625 7.398438 -0.707031 7.859375 -0.875 C 8.316406 -1.039062 8.71875 -1.285156 9.0625 -1.609375 C 9.40625 -1.929688 9.671875 -2.328125 9.859375 -2.796875 C 10.046875 -3.273438 10.140625 -3.828125 10.140625 -4.453125 L 10.140625 -13.609375 L 10.96875 -13.609375 L 10.96875 -4.390625 C 10.96875 -3.648438 10.847656 -2.992188 10.609375 -2.421875 C 10.378906 -1.859375 10.054688 -1.382812 9.640625 -1 C 9.222656 -0.613281 8.734375 -0.320312 8.171875 -0.125 C 7.609375 0.0625 7.003906 0.15625 6.359375 0.15625 Z M 6.359375 0.15625 "/></g></g></g><g fill="#000000" fill-opacity="1"><g transform="translate(182.667157, 270.819042)"><g><path d="M 1.9375 -14.234375 C 3.132812 -12.691406 4.320312 -11.148438 5.5 -9.609375 C 6.675781 -8.078125 7.863281 -6.539062 9.0625 -5 C 10.25 -6.539062 11.429688 -8.078125 12.609375 -9.609375 C 13.796875 -11.148438 14.984375 -12.691406 16.171875 -14.234375 L 16.171875 0 L 15.359375 0 L 15.359375 -11.171875 C 15.367188 -11.304688 15.375 -11.429688 15.375 -11.546875 C 15.382812 -11.671875 15.390625 -11.804688 15.390625 -11.953125 C 14.367188 -10.523438 13.320312 -9.128906 12.25 -7.765625 C 11.1875 -6.398438 10.125 -5.023438 9.0625 -3.640625 C 8.164062 -4.804688 7.28125 -5.953125 6.40625 -7.078125 C 5.539062 -8.210938 4.660156 -9.363281 3.765625 -10.53125 L 2.953125 -11.578125 C 2.910156 -11.648438 2.867188 -11.710938 2.828125 -11.765625 C 2.796875 -11.828125 2.757812 -11.890625 2.71875 -11.953125 C 2.71875 -11.804688 2.71875 -11.671875 2.71875 -11.546875 C 2.726562 -11.429688 2.742188 -11.304688 2.765625 -11.171875 L 2.765625 0 L 1.9375 0 Z M 1.9375 -14.234375 "/></g></g></g><g fill="#000000" fill-opacity="1"><g transform="translate(201.467928, 270.819042)"><g/></g></g><g fill="#919191" fill-opacity="1"><g transform="translate(207.868339, 270.819042)"><g><path d="M 7.359375 -11.875 C 7.335938 -11.96875 7.3125 -12.054688 7.28125 -12.140625 C 7.25 -12.234375 7.21875 -12.328125 7.1875 -12.421875 C 6.851562 -11.429688 6.472656 -10.457031 6.046875 -9.5 C 5.628906 -8.539062 5.210938 -7.578125 4.796875 -6.609375 L 9.609375 -6.609375 C 9.222656 -7.503906 8.847656 -8.382812 8.484375 -9.25 C 8.117188 -10.113281 7.742188 -10.988281 7.359375 -11.875 Z M 13.21875 0 L 12.40625 0 C 11.988281 -0.96875 11.570312 -1.9375 11.15625 -2.90625 C 10.75 -3.882812 10.34375 -4.859375 9.9375 -5.828125 L 4.46875 -5.828125 C 4.050781 -4.859375 3.640625 -3.882812 3.234375 -2.90625 C 2.828125 -1.9375 2.414062 -0.96875 2 0 L 1.171875 0 C 2.179688 -2.382812 3.179688 -4.753906 4.171875 -7.109375 C 5.171875 -9.472656 6.175781 -11.847656 7.1875 -14.234375 C 8.195312 -11.847656 9.203125 -9.472656 10.203125 -7.109375 C 11.203125 -4.753906 12.207031 -2.382812 13.21875 0 Z M 13.21875 0 "/></g></g></g><g fill="#919191" fill-opacity="1"><g transform="translate(222.838986, 270.819042)"><g><path d="M 6.359375 0.15625 C 5.691406 0.15625 5.078125 0.0625 4.515625 -0.125 C 3.960938 -0.320312 3.484375 -0.613281 3.078125 -1 C 2.671875 -1.382812 2.351562 -1.859375 2.125 -2.421875 C 1.894531 -2.992188 1.78125 -3.648438 1.78125 -4.390625 L 1.78125 -13.609375 L 2.578125 -13.609375 L 2.578125 -4.453125 C 2.578125 -3.828125 2.671875 -3.273438 2.859375 -2.796875 C 3.054688 -2.328125 3.316406 -1.929688 3.640625 -1.609375 C 3.972656 -1.285156 4.375 -1.039062 4.84375 -0.875 C 5.3125 -0.707031 5.816406 -0.625 6.359375 -0.625 C 6.898438 -0.625 7.398438 -0.707031 7.859375 -0.875 C 8.316406 -1.039062 8.71875 -1.285156 9.0625 -1.609375 C 9.40625 -1.929688 9.671875 -2.328125 9.859375 -2.796875 C 10.046875 -3.273438 10.140625 -3.828125 10.140625 -4.453125 L 10.140625 -13.609375 L 10.96875 -13.609375 L 10.96875 -4.390625 C 10.96875 -3.648438 10.847656 -2.992188 10.609375 -2.421875 C 10.378906 -1.859375 10.054688 -1.382812 9.640625 -1 C 9.222656 -0.613281 8.734375 -0.320312 8.171875 -0.125 C 7.609375 0.0625 7.003906 0.15625 6.359375 0.15625 Z M 6.359375 0.15625 "/></g></g></g><g fill="#919191" fill-opacity="1"><g transform="translate(236.098706, 270.819042)"><g><path d="M 10.75 -13.609375 L 10.75 -12.828125 L 5.765625 -12.828125 L 5.765625 0 L 4.96875 0 L 4.96875 -12.828125 L 0 -12.828125 L 0 -13.609375 Z M 10.75 -13.609375 "/></g></g></g><g fill="#919191" fill-opacity="1"><g transform="translate(247.433652, 270.819042)"><g><path d="M 1.203125 -6.78125 C 1.203125 -7.738281 1.382812 -8.640625 1.75 -9.484375 C 2.113281 -10.335938 2.609375 -11.078125 3.234375 -11.703125 C 3.859375 -12.335938 4.59375 -12.835938 5.4375 -13.203125 C 6.28125 -13.578125 7.179688 -13.765625 8.140625 -13.765625 C 9.097656 -13.765625 10 -13.578125 10.84375 -13.203125 C 11.695312 -12.835938 12.4375 -12.335938 13.0625 -11.703125 C 13.695312 -11.078125 14.195312 -10.335938 14.5625 -9.484375 C 14.9375 -8.640625 15.125 -7.738281 15.125 -6.78125 C 15.125 -5.820312 14.9375 -4.921875 14.5625 -4.078125 C 14.195312 -3.234375 13.695312 -2.5 13.0625 -1.875 C 12.4375 -1.25 11.695312 -0.753906 10.84375 -0.390625 C 10 -0.0234375 9.097656 0.15625 8.140625 0.15625 C 7.179688 0.15625 6.28125 -0.0234375 5.4375 -0.390625 C 4.59375 -0.753906 3.859375 -1.25 3.234375 -1.875 C 2.609375 -2.5 2.113281 -3.234375 1.75 -4.078125 C 1.382812 -4.921875 1.203125 -5.820312 1.203125 -6.78125 Z M 2.015625 -6.765625 C 2.015625 -5.910156 2.171875 -5.109375 2.484375 -4.359375 C 2.804688 -3.617188 3.242188 -2.972656 3.796875 -2.421875 C 4.359375 -1.867188 5.007812 -1.429688 5.75 -1.109375 C 6.488281 -0.785156 7.28125 -0.625 8.125 -0.625 C 8.96875 -0.625 9.765625 -0.785156 10.515625 -1.109375 C 11.265625 -1.429688 11.921875 -1.867188 12.484375 -2.421875 C 13.046875 -2.984375 13.488281 -3.632812 13.8125 -4.375 C 14.144531 -5.125 14.3125 -5.925781 14.3125 -6.78125 C 14.3125 -7.632812 14.144531 -8.4375 13.8125 -9.1875 C 13.488281 -9.945312 13.046875 -10.609375 12.484375 -11.171875 C 11.929688 -11.734375 11.28125 -12.175781 10.53125 -12.5 C 9.78125 -12.820312 8.984375 -12.984375 8.140625 -12.984375 C 7.296875 -12.984375 6.5 -12.816406 5.75 -12.484375 C 5.007812 -12.160156 4.359375 -11.710938 3.796875 -11.140625 C 3.242188 -10.578125 2.804688 -9.921875 2.484375 -9.171875 C 2.171875 -8.421875 2.015625 -7.617188 2.015625 -6.765625 Z M 2.015625 -6.765625 "/></g></g></g><g fill="#919191" fill-opacity="1"><g transform="translate(264.34853, 270.819042)"><g><path d="M 8.390625 -12.453125 C 8.304688 -12.347656 8.226562 -12.242188 8.15625 -12.140625 C 8.082031 -12.046875 8.007812 -11.945312 7.9375 -11.84375 C 7.8125 -11.945312 7.664062 -12.054688 7.5 -12.171875 C 7.332031 -12.296875 7.132812 -12.410156 6.90625 -12.515625 C 6.675781 -12.628906 6.421875 -12.722656 6.140625 -12.796875 C 5.867188 -12.867188 5.570312 -12.90625 5.25 -12.90625 C 4.789062 -12.90625 4.394531 -12.828125 4.0625 -12.671875 C 3.726562 -12.523438 3.445312 -12.328125 3.21875 -12.078125 C 2.988281 -11.828125 2.816406 -11.535156 2.703125 -11.203125 C 2.597656 -10.867188 2.546875 -10.53125 2.546875 -10.1875 C 2.546875 -9.8125 2.609375 -9.488281 2.734375 -9.21875 C 2.859375 -8.957031 3.023438 -8.734375 3.234375 -8.546875 C 3.453125 -8.367188 3.707031 -8.210938 4 -8.078125 C 4.300781 -7.941406 4.625 -7.816406 4.96875 -7.703125 C 5.382812 -7.554688 5.847656 -7.394531 6.359375 -7.21875 C 6.878906 -7.039062 7.363281 -6.800781 7.8125 -6.5 C 8.269531 -6.195312 8.648438 -5.816406 8.953125 -5.359375 C 9.253906 -4.898438 9.40625 -4.316406 9.40625 -3.609375 C 9.40625 -3.046875 9.296875 -2.53125 9.078125 -2.0625 C 8.867188 -1.59375 8.578125 -1.191406 8.203125 -0.859375 C 7.835938 -0.535156 7.40625 -0.285156 6.90625 -0.109375 C 6.40625 0.0664062 5.878906 0.15625 5.328125 0.15625 C 4.816406 0.15625 4.34375 0.09375 3.90625 -0.03125 C 3.476562 -0.164062 3.09375 -0.328125 2.75 -0.515625 C 2.414062 -0.710938 2.125 -0.921875 1.875 -1.140625 C 1.625 -1.367188 1.425781 -1.566406 1.28125 -1.734375 L 1.828125 -2.28125 C 2.003906 -2.09375 2.207031 -1.898438 2.4375 -1.703125 C 2.675781 -1.515625 2.9375 -1.335938 3.21875 -1.171875 C 3.5 -1.015625 3.804688 -0.882812 4.140625 -0.78125 C 4.472656 -0.675781 4.835938 -0.625 5.234375 -0.625 C 5.671875 -0.625 6.085938 -0.691406 6.484375 -0.828125 C 6.890625 -0.960938 7.25 -1.15625 7.5625 -1.40625 C 7.875 -1.65625 8.125 -1.960938 8.3125 -2.328125 C 8.5 -2.691406 8.59375 -3.109375 8.59375 -3.578125 C 8.59375 -4.160156 8.460938 -4.640625 8.203125 -5.015625 C 7.941406 -5.390625 7.617188 -5.695312 7.234375 -5.9375 C 6.859375 -6.1875 6.441406 -6.390625 5.984375 -6.546875 C 5.535156 -6.703125 5.113281 -6.847656 4.71875 -6.984375 C 4.476562 -7.054688 4.191406 -7.15625 3.859375 -7.28125 C 3.523438 -7.414062 3.207031 -7.597656 2.90625 -7.828125 C 2.601562 -8.066406 2.335938 -8.363281 2.109375 -8.71875 C 1.878906 -9.070312 1.757812 -9.515625 1.75 -10.046875 C 1.71875 -10.472656 1.765625 -10.90625 1.890625 -11.34375 C 2.015625 -11.78125 2.21875 -12.164062 2.5 -12.5 C 2.789062 -12.84375 3.160156 -13.125 3.609375 -13.34375 C 4.066406 -13.570312 4.617188 -13.6875 5.265625 -13.6875 C 5.753906 -13.6875 6.253906 -13.597656 6.765625 -13.421875 C 7.285156 -13.253906 7.828125 -12.929688 8.390625 -12.453125 Z M 8.390625 -12.453125 "/></g></g></g></svg>