<?xml version="1.0" standalone="no"?>
<!DOCTYPE svg PUBLIC "-//W3C//DTD SVG 20010904//EN"
 "http://www.w3.org/TR/2001/REC-SVG-20010904/DTD/svg10.dtd">
<svg version="1.0" xmlns="http://www.w3.org/2000/svg"
 width="512.000000pt" height="512.000000pt" viewBox="0 0 512.000000 512.000000"
 preserveAspectRatio="xMidYMid meet">
<metadata>
Created by potrace 1.14, written by Peter Selinger 2001-2017
</metadata>
<g transform="translate(0.000000,512.000000) scale(0.100000,-0.100000)"
fill="#000000" stroke="none">
<path d="M2113 3434 c-273 -27 -502 -65 -818 -135 -198 -44 -528 -130 -522
-136 3 -2 74 12 158 31 849 191 1500 249 1849 164 160 -39 355 -134 582 -286
121 -80 129 -84 167 -77 23 4 41 10 41 13 -1 4 -40 35 -88 68 -270 191 -546
321 -762 359 -105 19 -418 18 -607 -1z"/>
<path d="M1335 3170 c-22 -4 -79 -13 -127 -20 -49 -6 -88 -16 -88 -20 0 -11
116 -102 167 -131 24 -13 43 -27 43 -31 0 -4 -237 -9 -527 -11 -294 -2 -544
-8 -563 -13 -27 -8 -2 -10 105 -10 207 1 318 -29 432 -116 l66 -49 -33 57
c-23 42 -28 59 -19 64 26 17 439 23 1178 17 425 -3 771 -4 769 -2 -5 5 -548
32 -798 40 -308 10 -429 21 -503 48 -67 25 -227 113 -227 126 0 5 50 18 110
31 61 13 110 25 110 27 0 5 -51 2 -95 -7z"/>
<path d="M2942 3104 c-22 -15 -31 -64 -12 -64 6 0 22 7 36 16 20 14 42 16 112
11 48 -3 96 -8 107 -12 19 -6 19 -6 2 8 -21 17 -160 57 -198 57 -13 0 -35 -7
-47 -16z"/>
<path d="M3815 2980 c-363 -45 -509 -60 -643 -66 -78 -4 -145 -12 -149 -17 -9
-15 401 -2 617 19 249 25 598 25 710 0 188 -40 426 -137 630 -257 46 -26 52
-28 35 -9 -32 35 -190 137 -295 190 -293 146 -538 184 -905 140z"/>
<path d="M4058 2894 c-61 -14 -117 -40 -180 -82 -55 -36 -41 -37 28 -2 88 44
188 64 298 57 116 -6 207 -35 293 -93 93 -63 96 -63 33 -4 -122 114 -311 163
-472 124z"/>
<path d="M1960 2744 c-41 -69 -131 -210 -200 -312 l-125 -187 -140 -7 c-393
-20 -657 -88 -755 -194 -32 -35 -40 -51 -40 -82 0 -95 108 -169 270 -186 38
-4 49 -3 35 3 -11 5 -34 10 -52 10 -86 2 -213 82 -228 144 -39 153 253 265
763 293 75 4 122 3 122 -3 0 -16 -165 -206 -221 -254 -124 -105 -225 -162
-317 -180 l-47 -8 54 4 c67 5 162 49 251 115 73 54 212 195 275 278 37 49 42
52 82 52 24 0 43 -3 43 -7 0 -4 -19 -52 -41 -107 -42 -101 -58 -204 -34 -212
6 -2 10 18 11 49 0 37 13 83 45 162 l45 110 64 6 65 6 -52 1 c-28 1 -54 6 -57
10 -3 5 58 144 134 310 77 166 140 304 140 307 0 21 -26 -13 -90 -121z m-140
-333 c-40 -88 -79 -162 -87 -165 -27 -11 -65 -7 -61 7 5 19 211 327 216 322 2
-2 -28 -76 -68 -164z"/>
<path d="M2875 2674 c-234 -35 -465 -91 -665 -159 -145 -50 -340 -137 -321
-143 6 -2 17 1 24 6 23 19 223 100 347 140 375 121 800 189 800 127 0 -7 -19
-27 -42 -44 -50 -37 -216 -123 -271 -141 -21 -6 -36 -14 -34 -17 10 -9 191 67
268 113 87 53 120 87 101 106 -12 12 -153 20 -207 12z"/>
<path d="M3285 2591 c-207 -61 -449 -206 -610 -366 -122 -121 -141 -185 -68
-232 24 -16 50 -18 203 -17 144 0 192 4 270 23 52 12 97 25 100 28 6 6 -28 1
-135 -22 -104 -22 -323 -31 -380 -15 -95 26 -92 86 7 195 223 244 719 488 803
395 22 -25 16 -61 -25 -141 -23 -46 -26 -59 -14 -59 17 0 84 132 84 167 0 13
-9 32 -20 43 -26 26 -129 26 -215 1z"/>
<path d="M2315 2375 c-27 -71 -53 -131 -57 -133 -4 -2 -8 -14 -8 -26 0 -34
-19 -46 -79 -48 l-56 -2 53 -3 c35 -3 52 -8 52 -18 0 -13 -96 -245 -106 -254
-2 -2 -6 -2 -10 1 -3 3 18 56 46 118 28 62 48 115 45 118 -8 8 -83 -158 -126
-280 -43 -121 -45 -128 -26 -128 19 0 44 49 132 255 42 99 78 182 81 184 2 2
46 7 96 11 l93 7 -87 1 c-81 2 -88 4 -88 22 0 11 5 20 10 20 6 0 10 8 10 17 0
9 18 64 41 121 22 57 39 113 37 125 -2 13 -22 -29 -53 -108z"/>
<path d="M2093 2233 c26 -2 68 -2 95 0 26 2 4 3 -48 3 -52 0 -74 -1 -47 -3z"/>
<path d="M1815 2050 c-8 -13 4 -32 16 -25 12 8 12 35 0 35 -6 0 -13 -4 -16
-10z"/>
<path d="M2495 2049 c-10 -15 3 -25 16 -12 7 7 7 13 1 17 -6 3 -14 1 -17 -5z"/>
<path d="M3255 2050 c-4 -6 -3 -16 3 -22 6 -6 12 -6 17 2 4 6 3 16 -3 22 -6 6
-12 6 -17 -2z"/>
<path d="M3320 1929 l0 -70 28 3 c26 3 27 5 30 71 l3 67 -31 0 -30 0 0 -71z
m46 26 c4 -27 -7 -75 -17 -75 -5 0 -9 23 -9 51 0 34 4 49 12 47 6 -2 12 -13
14 -23z"/>
<path d="M3412 1933 l3 -68 33 -3 c18 -2 32 1 32 7 0 6 -11 11 -25 11 -33 0
-35 35 -2 44 l22 7 -22 9 c-31 13 -30 40 2 40 14 0 25 5 25 10 0 6 -16 10 -35
10 l-36 0 3 -67z"/>
<path d="M3500 1990 c0 -5 4 -10 10 -10 5 0 10 -25 12 -55 4 -72 22 -76 26 -5
2 30 8 60 14 67 8 10 3 13 -26 13 -20 0 -36 -4 -36 -10z"/>
<path d="M3611 1963 c-20 -79 -23 -103 -12 -103 6 0 11 7 11 15 0 21 30 19 46
-2 12 -17 13 -16 14 4 0 42 -23 123 -36 123 -7 0 -18 -17 -23 -37z m25 -51
c-12 -11 -18 7 -10 30 l8 23 4 -23 c2 -13 1 -26 -2 -30z"/>
<path d="M3700 1930 c0 -40 4 -70 10 -70 6 0 10 30 10 70 0 40 -4 70 -10 70
-6 0 -10 -30 -10 -70z"/>
<path d="M3750 1930 l0 -70 30 0 c17 0 30 5 30 10 0 6 -9 10 -20 10 -18 0 -20
7 -20 60 0 33 -4 60 -10 60 -6 0 -10 -30 -10 -70z"/>
<path d="M3840 1929 c0 -44 4 -68 10 -64 6 3 10 35 10 71 0 36 -4 64 -10 64
-6 0 -10 -30 -10 -71z"/>
<path d="M3880 1936 c0 -71 17 -99 22 -39 l4 38 17 -38 c10 -21 22 -35 27 -32
13 8 13 135 0 135 -5 0 -10 -13 -10 -30 0 -16 -4 -30 -9 -30 -5 0 -12 14 -16
30 -4 17 -13 30 -21 30 -11 0 -14 -15 -14 -64z"/>
<path d="M3987 1993 c-14 -13 -7 -110 8 -123 27 -22 50 -8 53 34 3 28 0 37
-10 34 -8 -3 -12 -16 -10 -32 3 -20 0 -27 -10 -24 -18 6 -24 98 -6 98 8 0 19
-5 26 -12 9 -9 12 -7 12 10 0 17 -6 22 -28 22 -16 0 -32 -3 -35 -7z"/>
<path d="M1836 1518 c-14 -39 -24 -74 -21 -76 3 -3 10 8 15 25 9 25 15 29 40
25 22 -3 32 -11 36 -29 4 -13 9 -22 11 -19 6 6 -36 134 -46 141 -5 2 -20 -28
-35 -67z m48 20 c9 -35 8 -38 -14 -38 -20 0 -25 15 -14 44 9 23 21 20 28 -6z"/>
<path d="M1942 1533 c-2 -68 12 -93 52 -93 37 0 46 19 44 90 l-1 65 -6 -64
c-4 -46 -11 -67 -23 -75 -33 -20 -52 4 -59 75 l-6 64 -1 -62z"/>
<path d="M2083 1583 c15 -2 39 -2 55 0 15 2 2 4 -28 4 -30 0 -43 -2 -27 -4z"/>
<path d="M2187 1572 c-22 -24 -22 -95 -1 -116 20 -21 58 -20 75 1 22 25 18
102 -5 119 -27 19 -50 18 -69 -4z m62 -6 c7 -8 11 -36 9 -63 -3 -41 -6 -48
-26 -51 -34 -5 -52 15 -52 59 0 56 41 89 69 55z"/>
<path d="M2414 1576 c-3 -7 -3 -42 -1 -77 l3 -64 2 72 2 72 38 4 37 4 -38 1
c-24 1 -40 -3 -43 -12z"/>
<path d="M2556 1581 c-12 -19 -46 -124 -42 -128 2 -2 12 20 21 49 10 29 22 59
28 66 5 7 7 15 4 18 -3 3 -8 1 -11 -5z"/>
<path d="M2685 1583 c11 -3 27 -10 35 -17 13 -10 13 -9 1 7 -7 9 -23 16 -35
16 -20 -1 -20 -2 -1 -6z"/>
<path d="M2773 1583 c15 -2 39 -2 55 0 15 2 2 4 -28 4 -30 0 -43 -2 -27 -4z"/>
<path d="M2888 1579 c-10 -5 -18 -15 -18 -22 0 -9 2 -9 8 0 4 7 19 16 32 22
14 5 18 10 10 10 -8 0 -23 -4 -32 -10z"/>
<path d="M3000 1581 c0 -4 11 -6 25 -3 14 2 25 6 25 8 0 2 -11 4 -25 4 -14 0
-25 -4 -25 -9z"/>
<path d="M2645 1569 c-4 -6 -5 -12 -2 -15 2 -3 7 2 10 11 7 17 1 20 -8 4z"/>
<path d="M3151 1554 c-10 -23 -14 -24 -28 -13 -15 13 -15 12 -5 -8 7 -12 13
-39 13 -60 l2 -38 6 45 c4 25 13 56 20 68 7 13 11 26 8 28 -2 2 -9 -8 -16 -22z"/>
<path d="M2103 1505 c0 -38 2 -53 4 -32 2 20 2 52 0 70 -2 17 -4 1 -4 -38z"/>
<path d="M2576 1540 c4 -14 13 -38 20 -55 11 -24 13 -25 8 -5 -4 14 -13 39
-20 55 -11 24 -13 25 -8 5z"/>
<path d="M2961 1515 c0 -23 -6 -46 -13 -53 -18 -18 -55 -15 -68 6 -7 10 -10
11 -7 3 10 -41 82 -38 93 3 3 13 4 37 1 52 -3 23 -4 21 -6 -11z"/>
<path d="M3070 1532 c0 -7 -9 -12 -20 -12 -27 0 -25 -10 11 -50 l30 -35 -22
33 c-22 31 -22 32 -3 46 10 8 16 18 11 22 -4 4 -7 2 -7 -4z"/>
<path d="M2443 1513 c9 -2 23 -2 30 0 6 3 -1 5 -18 5 -16 0 -22 -2 -12 -5z"/>
<path d="M2640 1471 c0 -6 4 -13 10 -16 6 -3 7 1 4 9 -7 18 -14 21 -14 7z"/>
<path d="M2678 1443 c6 -2 18 -2 25 0 6 3 1 5 -13 5 -14 0 -19 -2 -12 -5z"/>
</g>
</svg>
